<?xml version="1.0" encoding="utf-8"?>
<!-- Generator: Adobe Illustrator 27.5.0, SVG Export Plug-In . SVG Version: 6.00 Build 0)  -->
<svg version="1.1" id="Layer_1" xmlns="http://www.w3.org/2000/svg" xmlns:xlink="http://www.w3.org/1999/xlink" x="0px" y="0px"
	 viewBox="0 0 3500 2000" style="enable-background:new 0 0 3500 2000;" xml:space="preserve">
<g>
	<g>
		<g>
			<rect style="fill:#282828;" width="3500" height="2000"/>
		</g>
	</g>
	<g>
		<g>
			<g>
				<path style="fill:#282828;" d="M1867.419,1089.928c-12.132,0-24.364-1.821-36.034-5.566
					c-28.306-9.086-54.997-28.373-80.811-47.025c-37.147-26.842-72.219-52.205-112.164-50.446
					c-32.392,1.419-61.3,19.941-91.906,39.549c-35.494,22.741-72.196,46.259-115.817,42.164c-19.175-1.8-37.685-9.016-55.016-21.447
					c-15.475-11.101-29.741-26.118-42.403-44.637c-22.099-32.321-37.912-74.22-41.268-109.347
					c-3.451-36.123,52.321-48.954,82.284-55.848l2.232-0.514c4.281-0.988,8.56-1.973,12.836-2.956
					c55.009-12.654,111.89-25.738,165.929-46.5c66.635-25.602,129.886-60.833,188.311-95.093
					c9.604-5.631,19.439-11.822,29.853-18.376c39.403-24.802,84.063-52.914,126.783-55.509c9.66-0.588,17.278,2.011,22.64,7.721
					c10.6,11.292,10.482,32.47,8.517,48.247c-1.491,11.974-3.439,24.034-5.323,35.698c-3.856,23.872-7.843,48.557-8.04,73.44
					c-0.323,40.887,12.094,80.564,24.101,118.935c10.882,34.773,21.16,67.619,22.453,100.799
					c1.025,26.347-10.091,49.729-31.301,65.839C1915.307,1082.702,1891.572,1089.928,1867.419,1089.928z M1642.189,986.307
					c16.86,0,34.519,4.873,53.85,14.842c18.548,9.565,36.992,22.893,54.828,35.781c25.781,18.629,52.44,37.893,80.67,46.954
					c34.755,11.154,74.567,5.178,101.435-15.228c21.077-16.008,32.123-39.242,31.104-65.421
					c-1.29-33.114-11.559-65.929-22.43-100.669c-12.02-38.408-24.447-78.123-24.124-119.088c0.197-24.922,4.188-49.626,8.046-73.517
					c1.884-11.659,3.831-23.715,5.321-35.679c1.952-15.671,2.082-36.693-8.385-47.844c-5.255-5.597-12.749-8.148-22.244-7.565
					c-42.593,2.588-87.196,30.663-126.549,55.433c-10.416,6.557-20.255,12.75-29.865,18.385
					c-58.444,34.27-121.716,69.514-188.384,95.128c-54.072,20.774-110.971,33.863-165.997,46.521
					c-4.276,0.983-8.555,1.968-12.835,2.956l-2.233,0.514c-29.813,6.859-85.307,19.626-81.898,55.313
					c3.348,35.047,19.128,76.857,41.183,109.112c18.918,27.669,51.113,61.557,97.053,65.868c43.45,4.084,80.078-19.392,115.5-42.087
					c30.664-19.646,59.627-38.203,92.154-39.628C1639.65,986.335,1640.918,986.307,1642.189,986.307z"/>
			</g>
			<g>
				<path style="fill:#2B2B2B;" d="M1877.175,1103.855c-12.397,0.001-24.652-1.859-36.221-5.544
					c-30.643-9.76-58.799-31.855-86.027-53.225c-37.539-29.459-72.992-57.29-114.236-55.376l-0.012-0.267l0.012,0.267
					c-35.086,1.624-65.706,23.687-98.123,47.044c-37.641,27.12-76.559,55.166-124.489,50.734
					c-50.361-4.654-84.93-43.266-105.061-74.837c-22.929-35.958-39.412-82.7-43.018-121.983
					c-3.459-37.681,55.838-47.69,87.695-53.068c2.084-0.352,4.058-0.685,5.898-1.006c61.37-10.703,126.481-23.16,188.574-47.173
					c67.917-26.266,129.737-62.039,201.663-107.672c9.978-6.33,20.346-13.442,31.323-20.971
					c41.187-28.25,87.867-60.268,131.981-62.317c9.735-0.447,17.257,2.26,22.357,8.061c8.314,9.455,10.315,26.793,5.948,51.531
					c-1.931,10.939-4.195,21.939-6.386,32.578c-5.799,28.165-11.796,57.288-11.877,87.083
					c-0.116,43.346,15.287,84.434,30.184,124.169c13.63,36.358,26.505,70.7,27.962,105.924
					c1.171,28.288-11.364,53.926-35.296,72.191c-14.452,11.03-32.167,18.627-51.229,21.971
					C1891.615,1103.229,1884.371,1103.855,1877.175,1103.855z M1644.71,989.083c39.721,0,74.156,27.025,110.547,55.583
					c27.191,21.339,55.308,43.404,85.858,53.136c36.306,11.563,78.927,4.407,108.586-18.229
					c23.789-18.156,36.249-43.635,35.086-71.744c-1.453-35.137-14.313-69.44-27.929-105.757
					c-14.913-39.78-30.334-80.915-30.217-124.358c0.081-29.849,6.083-58.999,11.887-87.19c2.19-10.634,4.454-21.631,6.384-32.562
					c4.276-24.225,2.263-41.889-5.823-51.085c-4.987-5.673-12.386-8.32-21.93-7.88c-43.962,2.042-90.576,34.015-131.704,62.224
					c-10.981,7.532-21.354,14.646-31.339,20.981c-71.953,45.65-133.799,81.438-201.757,107.72
					c-62.138,24.03-127.279,36.494-188.675,47.2c-1.841,0.321-3.816,0.655-5.901,1.007c-31.685,5.349-90.664,15.304-87.25,52.491
					c7.09,77.248,62.326,188.454,147.595,196.336c47.724,4.412,86.566-23.573,124.126-50.636
					c32.484-23.406,63.167-45.513,98.412-47.145C1642.019,989.113,1643.37,989.083,1644.71,989.083z"/>
			</g>
			<g>
				<path style="fill:#2F2F2F;" d="M1885.519,1118.164c-12.174,0-24.131-1.735-35.412-5.186
					c-33.086-10.12-62.545-35.004-91.035-59.069c-37.573-31.737-73.059-61.702-115.552-59.753
					c-38.439,1.775-70.83,27.425-105.122,54.582c-39.55,31.32-80.441,63.697-132.976,59.216
					c-54.814-4.687-91.54-48.337-112.696-84.131c-28.115-47.567-41.195-101.101-44.06-135.339
					c-3.292-39.349,59.156-46.295,92.706-50.027c2.871-0.319,5.543-0.617,7.964-0.91c64.012-7.749,132.479-18.522,199.456-44.662
					c71.503-27.905,136.16-67.917,211.243-119.408c5.868-4.024,11.726-8.073,17.585-12.124
					c23.818-16.463,48.446-33.487,73.656-48.658l2.278-1.372c24.218-14.588,51.667-31.123,78.329-32.377
					c10.089-0.47,17.7,2.311,22.624,8.279c11.459,13.887,6.419,41.729,1.631,61.463c-1.452,5.988-2.973,12.056-4.442,17.924
					c-8.541,34.101-17.374,69.362-17.126,105.646c0.311,45.567,18.893,87.586,36.862,128.221
					c16.759,37.895,32.588,73.689,34.133,111.332c1.248,30.4-12.783,58.508-39.51,79.144
					c-15.654,12.087-34.576,20.604-54.719,24.632C1902.732,1117.307,1894.071,1118.164,1885.519,1118.164z M1647.479,993.494
					c40.954,0,75.477,29.161,111.961,59.979c28.445,24.027,57.859,48.873,90.834,58.959c37.864,11.583,83.176,2.976,115.431-21.929
					c26.576-20.52,40.529-48.457,39.289-78.668c-1.541-37.535-17.349-73.28-34.085-111.124
					c-17.994-40.689-36.601-82.763-36.912-128.449c-0.247-36.356,8.594-71.653,17.145-105.789
					c1.469-5.867,2.989-11.934,4.441-17.919c4.759-19.615,9.779-47.275-1.517-60.965c-4.804-5.821-12.258-8.53-22.156-8.072
					c-26.519,1.247-53.901,17.743-78.062,32.296l-2.278,1.372c-25.194,15.161-49.815,32.18-73.626,48.639
					c-5.86,4.05-11.718,8.1-17.588,12.125c-75.115,51.513-139.804,91.543-211.357,119.468
					c-67.036,26.163-135.546,36.944-199.595,44.697c-2.421,0.293-5.097,0.591-7.969,0.91c-33.356,3.711-95.446,10.617-92.2,49.411
					c2.86,34.176,15.917,87.612,43.983,135.097c21.088,35.678,57.681,79.187,112.253,83.851
					c52.292,4.475,93.109-27.843,132.572-59.094c34.366-27.215,66.827-52.92,105.45-54.704l0.013,0.286l-0.013-0.286
					C1644.828,993.524,1646.158,993.494,1647.479,993.494z"/>
			</g>
			<g>
				<path style="fill:#323232;" d="M1892.435,1132.948c-11.556,0.001-22.858-1.521-33.55-4.561
					c-36.168-10.28-66.776-37.878-96.377-64.567c-36.956-33.322-71.848-64.782-115.568-63.307
					c-35.744,1.219-70.502,30.479-101.168,56.296c-8.624,7.26-16.77,14.116-24.76,20.254
					c-17.199,13.208-37.745,28.134-59.725,38.688c-24.255,11.647-46.728,16.391-68.708,14.503
					c-59.352-5.101-97.996-53.948-119.963-94.028c-28.645-52.263-41.773-111.523-44.508-149.555
					c-0.643-8.935,1.856-16.675,7.428-23.007c17.499-19.89,62.114-22.388,88.771-23.88c3.384-0.189,6.581-0.369,9.386-0.563
					c63.38-4.397,138.06-12.782,211.394-41.641c82.148-32.327,154.593-83.68,221.755-133.509c5.405-4.011,10.802-8.041,16.2-12.071
					c25.069-18.718,50.992-38.074,77.703-55.327l1.25-0.808c23.934-15.463,53.719-34.708,82.113-35.965
					c10.562-0.473,18.378,2.429,23.252,8.609c12.799,16.228,2.514,52.063-2.429,69.284c-1.049,3.652-2.107,7.304-3.167,10.957
					c-11.056,38.131-22.488,77.561-21.497,118.305c1.152,47.403,22.934,89.764,43.997,130.73
					c20.279,39.442,39.435,76.695,40.953,117.347c1.202,32.201-14.871,63.829-44.097,86.774
					c-16.789,13.182-36.821,22.697-57.931,27.521C1912.911,1131.776,1902.575,1132.948,1892.435,1132.948z M1649.928,999.856
					c42.549,0,76.785,30.872,112.988,63.514c29.549,26.644,60.104,54.193,96.136,64.435c39.897,11.338,86.527,1.235,121.694-26.374
					c29.071-22.824,45.06-54.27,43.864-86.273c-1.513-40.518-20.638-77.713-40.886-117.093
					c-21.095-41.027-42.908-83.451-44.064-130.993c-0.993-40.838,10.453-80.314,21.521-118.489c1.06-3.653,2.118-7.304,3.166-10.956
					c4.915-17.125,15.142-52.757,2.536-68.741c-4.746-6.018-12.403-8.841-22.748-8.379c-28.23,1.25-57.939,20.445-81.811,35.869
					l-1.25,0.808c-26.694,17.242-52.608,36.591-77.67,55.304c-5.398,4.031-10.796,8.061-16.202,12.072
					c-67.194,49.853-139.676,101.233-221.894,133.586c-73.412,28.888-148.148,37.281-211.575,41.681
					c-2.809,0.195-6.008,0.374-9.395,0.564c-26.562,1.487-71.018,3.976-88.349,23.675c-5.459,6.205-7.908,13.796-7.278,22.562
					c2.73,37.969,15.837,97.13,44.435,149.308c21.896,39.949,60.399,88.638,119.483,93.714
					c46.562,4.013,89.043-23.141,128.011-53.066c7.98-6.129,16.121-12.982,24.739-20.237c30.742-25.88,65.585-55.212,101.539-56.438
					l0.01,0.303l-0.01-0.303C1647.926,999.873,1648.932,999.856,1649.928,999.856z"/>
			</g>
			<g>
				<path style="fill:#353535;" d="M1389.468,1154.69c-3.354,0-6.691-0.149-10.021-0.447
					c-64.063-5.738-104.374-59.957-126.908-104.431c-28.914-57.063-41.737-122.406-44.097-164.529
					c-0.546-9.742,2.281-17.962,8.402-24.433c18.701-19.767,65-19.717,92.654-19.732c4.156,0.002,8.081,0.004,11.418-0.059
					c61.432-1.155,141.964-6.5,220.08-37.829c84.267-33.798,156.006-88.539,228.153-146.406c5.683-4.558,11.354-9.139,17.026-13.723
					c25.839-20.877,52.559-42.464,80.341-61.619l0.521-0.359c24.924-17.184,55.943-38.571,86.404-39.736
					c11.302-0.43,19.538,2.645,24.508,9.144c12.523,16.375,1.675,51.045-3.539,67.707c-1.7,5.434-3.435,10.862-5.168,16.29
					c-13.056,40.869-26.556,83.129-24.666,127.474c2.087,48.988,27.099,91.207,51.286,132.038
					c24.173,40.805,47.006,79.347,48.327,123.629c1.028,34.457-16.566,68.908-48.272,94.521
					c-28.699,23.183-64.362,35.862-98.313,35.864c-10.33,0-20.497-1.173-30.268-3.581c-39.193-9.661-70.494-39.826-100.766-68.997
					c-35.437-34.15-68.946-66.441-113.067-66.441c-0.829,0-1.66,0.012-2.496,0.034c-38.81,1.066-75.305,33.593-107.503,62.29
					c-8.208,7.316-15.962,14.227-23.531,20.441c-19.666,16.148-41.125,32.781-64.788,45.047
					C1432.103,1148.812,1410.498,1154.69,1389.468,1154.69z M1307.266,841.762c-27.752,0-71.934,0.483-89.954,19.531
					c-5.995,6.337-8.763,14.396-8.228,23.955c2.356,42.059,15.159,107.3,44.028,164.274
					c22.461,44.329,62.623,98.369,126.393,104.081c53.408,4.788,100.299-29.648,140.061-62.298
					c7.559-6.207,15.308-13.113,23.511-20.425c32.281-28.771,68.869-61.381,107.914-62.453l0.009,0.321l-0.009-0.321
					c45.618-1.273,79.825,31.7,116.027,66.587c30.21,29.112,61.448,59.216,100.474,68.835
					c41.691,10.276,90.746-2.045,128.022-32.158c31.549-25.485,49.057-59.747,48.034-94.001
					c-1.317-44.117-24.108-82.59-48.237-123.321c-24.228-40.898-49.282-83.189-51.376-132.338
					c-1.895-44.459,11.623-86.775,24.696-127.697c1.733-5.426,3.467-10.853,5.167-16.287c5.181-16.558,15.963-51.014,3.642-67.124
					c-4.835-6.324-12.917-9.317-23.972-8.892c-30.275,1.158-61.209,22.486-86.065,39.623l-0.52,0.358
					c-27.763,19.141-54.472,40.721-80.302,61.59c-5.674,4.584-11.345,9.166-17.028,13.724
					c-72.187,57.899-143.968,112.671-228.316,146.501c-78.213,31.369-158.82,36.719-220.308,37.876
					c-3.343,0.063-7.27,0.061-11.43,0.059C1308.769,841.762,1308.021,841.762,1307.266,841.762z"/>
			</g>
			<g>
				<path style="fill:#393939;" d="M1376.93,1179.92c-3.636,0-7.297-0.169-10.985-0.518c-61.556-5.816-102.18-60.55-125.421-105.44
					c-30.013-57.975-48.032-125.303-50.739-189.582c-0.459-10.895,2.778-19.832,9.622-26.563
					c20.199-19.87,66.78-17.14,97.602-15.336c5.439,0.319,10.136,0.594,14.138,0.711c92.88,2.715,162.369-7.656,225.313-33.611
					c85.385-35.209,157.683-94.672,230.349-157.671c6.09-5.279,12.162-10.589,18.239-15.902
					c27.922-24.414,56.795-49.658,87.297-71.747c23.241-16.829,55.07-39.877,87.175-40.782c12.404-0.335,21.329,3.038,26.504,10.069
					c12.645,17.181,0.601,52.336-6.595,73.341l-0.453,1.324c-1.286,3.758-2.586,7.52-3.887,11.287
					c-15.237,44.116-30.993,89.734-27.637,137.557c3.498,49.874,31.515,91.311,58.608,131.385
					c28.515,42.175,55.448,82.01,56.34,130.88c0.677,37.029-18.685,74.675-53.118,103.284
					c-39.292,32.646-90.546,47.413-133.761,38.536c-42.008-8.626-73.516-40.828-103.986-71.97
					c-35.165-35.939-68.371-69.873-115.768-69.063l-0.006-0.339l0.006,0.339c-42.942,0.746-81.729,36.93-115.95,68.854
					c-8.887,8.29-17.28,16.12-25.454,23.076C1472.665,1147.524,1427.299,1179.92,1376.93,1179.92z M1264.039,841.914
					c-24.774,0-50.569,3.021-64.157,16.387c-6.701,6.592-9.87,15.356-9.42,26.051c2.703,64.182,20.696,131.409,50.664,189.297
					c23.163,44.741,63.631,99.29,124.882,105.077c3.662,0.346,7.306,0.514,10.916,0.514c50.161,0.004,95.398-32.315,136.998-67.718
					c8.161-6.945,16.549-14.771,25.43-23.055c34.311-32.008,73.199-68.286,116.401-69.036c47.669-0.814,80.995,33.22,116.265,69.267
					c30.399,31.069,61.833,63.196,103.638,71.78c43.017,8.832,94.054-5.878,133.189-38.395
					c34.275-28.477,53.547-65.928,52.875-102.75c-0.889-48.668-27.768-88.423-56.225-130.512
					c-27.144-40.148-55.212-81.662-58.724-131.717c-3.365-47.961,12.414-93.646,27.673-137.826
					c1.301-3.766,2.601-7.527,3.886-11.285l0.454-1.324c7.152-20.879,19.124-55.824,6.689-72.719
					c-5.035-6.842-13.761-10.141-25.938-9.793c-31.896,0.899-63.627,23.876-86.796,40.653
					c-30.478,22.07-59.338,47.304-87.249,71.708c-6.077,5.313-12.151,10.624-18.24,15.903
					c-72.711,63.036-145.056,122.537-230.535,157.785c-63.037,25.994-132.612,36.373-225.591,33.663
					c-4.012-0.117-8.714-0.393-14.158-0.711C1287.141,842.583,1275.702,841.914,1264.039,841.914z"/>
			</g>
			<g>
				<path style="fill:#3C3C3C;" d="M1364.356,1206.611c-4.125,0-8.274-0.206-12.469-0.636
					c-65.459-6.701-107.502-65.966-131.246-114.502c-30.626-62.606-47.813-136.286-48.393-207.466
					c-0.101-12.312,3.792-22.123,11.567-29.163c21.574-19.528,68.406-14.473,99.396-11.129c5.487,0.592,10.67,1.151,14.957,1.484
					c65.349,5.062,150.919,6.37,233.25-28.761c85.412-36.446,154.94-98.133,230.54-169.072c5.866-5.505,11.718-11.039,17.572-16.576
					c27.822-26.311,56.591-53.518,87.144-77.568c24.928-19.623,59.067-46.497,95.288-46.978
					c14.049-0.184,23.995,3.675,29.527,11.477c12.786,18.033-0.005,53.014-8.469,76.162c-0.611,1.673-1.199,3.282-1.752,4.813
					c-0.887,2.458-1.778,4.92-2.671,7.386c-16.958,46.837-34.494,95.268-29.251,145.991c5.184,50.153,36.267,90.577,66.325,129.669
					c33.514,43.585,65.168,84.753,64.08,138.256c-0.836,41.071-23.382,83.108-61.856,115.335
					c-40.28,33.737-90.517,49.764-134.376,42.865c-44.675-7.024-75.93-40.642-106.156-73.151
					c-34.003-36.571-66.133-71.124-115.712-71.124c-0.133,0-0.259,0-0.393,0.001l-0.001-0.357l0.001,0.357
					c-47.949,0.177-89.007,39.769-125.231,74.699c-9.471,9.133-18.417,17.76-27.108,25.322
					C1465.248,1171.947,1417.656,1206.611,1364.356,1206.611z M1237.959,841.255c-21.042,0-41.478,3.088-53.664,14.119
					c-7.619,6.897-11.432,16.529-11.333,28.628c0.58,71.076,17.74,144.645,48.32,207.157
					c23.664,48.374,65.544,107.438,130.677,114.105c4.161,0.426,8.296,0.632,12.389,0.633
					c53.081,0.003,100.531-34.577,144.103-72.491c8.678-7.551,17.617-16.171,27.081-25.297
					c36.321-35.024,77.488-74.723,125.724-74.9c0.126,0,0.256,0,0.382,0c22.362,0,43.367,7.24,64.207,22.129
					c18.696,13.357,35.648,31.591,52.042,49.223c30.144,32.421,61.313,65.946,105.744,72.933
					c43.654,6.864,93.682-9.101,133.807-42.708c38.315-32.094,60.769-73.937,61.6-114.801
					c1.084-53.253-30.497-94.324-63.932-137.807c-30.12-39.171-61.265-79.676-66.47-130.031
					c-5.259-50.886,12.305-99.396,29.29-146.308c0.893-2.465,1.784-4.927,2.671-7.385c0.553-1.533,1.142-3.142,1.753-4.816
					c8.413-23.008,21.126-57.777,8.557-75.503c-5.387-7.599-15.105-11.349-28.935-11.176c-35.979,0.478-70.009,27.266-94.856,46.826
					c-30.527,24.03-59.284,51.226-87.094,77.525c-5.855,5.538-11.707,11.071-17.575,16.577
					c-75.65,70.987-145.229,132.717-230.748,169.209c-82.473,35.191-168.155,33.885-233.585,28.816
					c-4.298-0.333-9.486-0.893-14.979-1.486C1269.901,842.998,1253.758,841.255,1237.959,841.255z"/>
			</g>
			<g>
				<path style="fill:#404040;" d="M1353.36,1234.257c-5.291,0-10.685-0.294-16.199-0.906
					c-32.099-3.569-61.605-19.561-87.699-47.532c-20.715-22.206-38.858-51.335-53.925-86.577
					c-26.66-62.359-40.4-136.55-39.734-214.552c0.111-13.047,4.441-23.347,12.87-30.613c23.678-20.411,75.162-13.189,105.923-8.873
					c4.214,0.591,8.196,1.149,11.625,1.57c72.209,8.858,157.146,13.002,239.607-23.44c90.96-40.199,162.296-112.871,231.283-183.15
					l1.744-1.777c4.486-4.57,8.963-9.157,13.442-13.746c29.318-30.037,59.636-61.097,93.024-87.647
					c29.876-23.759,61.835-46.98,95.167-47.279c0.214-0.002,0.429-0.003,0.642-0.003c14.066,0,24.153,4.189,29.99,12.458
					c13.02,18.442,3.072,52.604-7.049,80.306c-1.525,4.174-3.073,8.362-4.625,12.563c-18.04,48.821-36.695,99.305-29.085,151.928
					c7.41,51.23,41.072,91.02,73.627,129.499c37.41,44.217,72.744,85.982,71.309,143.432c-1.05,42.002-25.377,88.186-65.074,123.541
					c-19.752,17.593-42.469,31.701-65.693,40.8c-24.969,9.782-49.586,13.654-73.163,11.514
					c-44.928-4.081-76.938-35.561-103.413-64.746c-35.929-39.605-67.347-69.842-117.157-69.458
					c-62.756,0.517-110.666,43.943-156.998,85.939C1466.689,1190.209,1418.091,1234.257,1353.36,1234.257z M1220.965,841.104
					c-20.241,0-39.725,3.129-51.802,13.54c-8.258,7.118-12.5,17.229-12.61,30.052c-0.665,77.899,13.054,151.986,39.674,214.25
					c24.159,56.509,68.235,125.567,141.018,133.658c72.647,8.083,125.214-39.572,176.052-85.653
					c46.436-42.091,94.453-85.615,157.496-86.134l0.003,0.375l-0.003-0.375c0.333-0.003,0.674-0.004,1.006-0.004
					c49.521,0,80.895,30.227,116.711,69.708c26.382,29.081,58.268,60.447,102.927,64.504c45.318,4.104,97.02-15.371,138.29-52.127
					c39.545-35.221,63.777-81.202,64.822-123.001c1.429-57.164-33.816-98.823-71.131-142.928
					c-32.623-38.56-66.357-78.433-73.797-129.876c-7.638-52.812,11.051-103.386,29.123-152.295c1.553-4.2,3.1-8.387,4.624-12.56
					c10.059-27.53,19.96-61.458,7.142-79.616c-5.688-8.057-15.571-12.14-29.379-12.14c-0.211,0-0.421,0.001-0.635,0.003
					c-33.094,0.296-64.932,23.438-94.706,47.116c-33.353,26.522-63.652,57.565-92.955,87.585
					c-4.479,4.589-8.957,9.177-13.443,13.747l-1.744,1.777c-69.037,70.33-140.424,143.054-231.515,183.31
					c-82.628,36.517-167.691,32.371-240.002,23.499c-3.436-0.421-7.419-0.98-11.637-1.572
					C1259.655,843.864,1239.975,841.104,1220.965,841.104z"/>
			</g>
			<g>
				<path style="fill:#434343;" d="M1338.021,1262.341c-5.397,0-10.868-0.322-16.43-0.999
					c-33.724-4.101-66.171-22.308-93.835-52.654c-23.544-25.827-42.955-59.652-54.656-95.245
					c-22.44-68.255-34.432-150.775-32.902-226.401c0.265-13.122,4.92-23.566,13.836-31.041c27.38-22.957,87.821-13.507,120.292-8.43
					c1.926,0.301,3.744,0.586,5.438,0.844c90.463,13.818,165.876,15.984,239.875-18.366
					c88.002-40.85,154.795-114.772,219.388-186.26c3.057-3.383,6.107-6.758,9.151-10.122
					c35.183-38.867,70.06-76.468,109.881-109.235c29.367-24.164,63.521-49.989,97.228-50.518
					c13.835-0.211,24.088,4.101,30.449,12.832c15.993,21.951,3.393,66.532-2.768,84.681c-2.558,7.535-5.282,15.225-7.917,22.663
					c-16.786,47.377-34.145,96.368-24.189,147.582c9.83,50.575,44.915,87.109,78.845,122.441c3.453,3.596,6.902,7.187,10.322,10.789
					c44.053,46.401,68.747,99.14,67.751,144.693c-1.037,47.415-27.622,96.585-72.938,134.903
					c-31.917,26.989-80.739,58.88-133.195,58.88c-0.803,0-1.605-0.007-2.409-0.022c-44.782-0.838-71.646-28.582-100.087-57.955
					c-1.679-1.733-3.363-3.474-5.059-5.215c-25.851-26.557-66.833-58.236-115.277-58.354c-0.066,0-0.133,0-0.2,0
					c-30,0-61.514,16.098-88.708,31.195l-0.745,0.413c-28.176,15.642-60.112,33.37-85.553,53.913
					c-2.962,2.393-5.942,4.813-8.941,7.248C1449.58,1221.225,1398.957,1262.337,1338.021,1262.341z M1211.02,842.05
					c-21.994,0-43.206,3.421-56.481,14.552c-8.734,7.323-13.295,17.569-13.555,30.454c-1.529,75.541,10.449,157.966,32.862,226.14
					c20.441,62.174,71.425,138.074,147.84,147.366c68.028,8.268,123.526-36.803,172.488-76.57c3-2.437,5.979-4.857,8.943-7.25
					c25.494-20.586,57.461-38.332,85.665-53.988l0.746-0.414c27.279-15.144,58.904-31.294,89.09-31.294c0.068,0,0.133,0,0.201,0.001
					c48.717,0.117,89.883,31.927,115.838,58.59c1.696,1.742,3.382,3.483,5.061,5.218c28.325,29.253,55.079,56.883,99.536,57.716
					c0.798,0.015,1.6,0.022,2.396,0.022c52.221,0.002,100.87-31.79,132.688-58.694c45.145-38.173,71.628-87.132,72.66-134.321
					c0.991-45.348-23.625-97.883-67.536-144.135c-3.418-3.601-6.866-7.191-10.318-10.786
					c-34.009-35.413-69.176-72.033-79.05-122.836c-9.996-51.424,7.398-100.518,24.22-147.995c2.635-7.435,5.358-15.123,7.914-22.653
					c6.12-18.032,18.653-62.311,2.877-83.965c-6.203-8.514-16.26-12.714-29.803-12.51c-33.452,0.525-67.476,26.26-96.739,50.339
					c-39.78,32.733-74.637,70.311-109.799,109.156c-3.044,3.363-6.094,6.739-9.151,10.122
					c-64.646,71.546-131.493,145.528-219.64,186.446c-74.178,34.433-149.72,32.27-240.324,18.43
					c-1.696-0.259-3.514-0.543-5.441-0.844C1257.7,845.766,1233.936,842.05,1211.02,842.05z"/>
			</g>
			<g>
				<path style="fill:#464646;" d="M1323.443,1290.824c-6.058,0-12.197-0.392-18.44-1.222c-43.377-5.771-75.125-31.81-94.121-52.638
					c-29.695-32.56-42.395-66.311-53.26-110.214c-16.249-65.656-34.605-151.804-32.309-235.901
					c0.371-13.583,5.276-24.419,14.579-32.208c28.633-23.972,91.791-14.462,125.719-9.353c2.185,0.329,4.241,0.639,6.148,0.918
					l4.266,0.625c81.813,11.995,159.088,23.326,236.788-14.776c80.113-39.285,139.068-109.003,196.083-176.427
					c10.495-12.411,21.347-25.244,32.061-37.549c32.892-37.778,68.323-77.468,107.962-110.998
					c21.302-18.018,60.952-51.556,97.813-52.37c13.759-0.304,24.219,4.013,31.034,12.832c16.884,21.843,8.001,65.244,1.204,89.17
					c-3.214,11.311-6.901,22.808-10.467,33.926c-14.594,45.505-29.685,92.559-17.297,141.361
					c11.126,43.836,40.528,72.779,71.657,103.422c9.663,9.513,19.655,19.349,28.935,29.578
					c19.432,21.421,35.783,46.018,47.288,71.134c12.492,27.272,18.855,54.566,18.403,78.931
					c-0.893,47.974-26.01,98.397-68.911,138.342c-33.94,31.599-86.029,70.042-141.45,73.738
					c-40.957,2.737-67.288-20.313-95.156-44.71c-3.176-2.78-6.376-5.582-9.624-8.369c-29.973-25.718-70.278-55.172-116.689-55.172
					c-0.273,0-0.547,0.001-0.821,0.004l-0.003-0.411l0.003,0.411c-49.607,0.371-98.049,32.436-144.895,63.443
					c-14.437,9.556-28.073,18.582-41.599,26.591c-10.738,6.357-21.777,13.419-32.452,20.247
					C1421.513,1261.568,1375.772,1290.824,1323.443,1290.824z M1200.539,843.877c-23.368,0-46.02,3.59-60.12,15.395
					c-9.115,7.631-13.92,18.263-14.285,31.6c-2.293,83.998,16.049,170.076,32.285,235.681
					c10.834,43.778,23.491,77.426,53.069,109.858c18.904,20.727,50.491,46.638,93.623,52.376c6.194,0.824,12.302,1.213,18.315,1.214
					c52.113,0.003,97.74-29.188,142.022-57.514c10.681-6.832,21.726-13.896,32.476-20.262c13.509-7.998,27.137-17.019,41.564-26.568
					c46.946-31.074,95.491-63.207,145.343-63.581c0.275-0.002,0.552-0.003,0.827-0.003c46.681,0,87.143,29.56,117.224,55.37
					c3.25,2.789,6.452,5.592,9.63,8.374c27.736,24.282,53.943,47.229,94.561,44.508c55.18-3.68,107.104-42.011,140.944-73.52
					c42.74-39.793,67.762-90.003,68.65-137.756c0.868-46.732-24.222-104.017-65.479-149.497
					c-9.264-10.211-19.247-20.039-28.902-29.544c-31.213-30.726-60.694-59.747-71.878-103.805
					c-12.444-49.031,2.683-96.199,17.312-141.815c3.563-11.111,7.249-22.602,10.458-33.899c5.438-19.143,16.222-66.081-1.063-88.443
					c-6.648-8.6-16.839-12.799-30.367-12.513c-36.57,0.807-76.076,34.223-97.3,52.175c-39.597,33.493-75.003,73.155-107.875,110.91
					c-10.709,12.301-21.56,25.132-32.052,37.54c-57.069,67.488-116.082,137.273-196.349,176.634
					c-40.343,19.783-80.555,26.283-121.318,26.284c-37.976,0.001-76.429-5.639-115.949-11.433l-4.267-0.625
					c-1.909-0.279-3.965-0.589-6.151-0.918C1248.499,847.544,1224.153,843.877,1200.539,843.877z"/>
			</g>
			<g>
				<path style="fill:#4A4A4A;" d="M1308.371,1319.102c-7.146,0-14.196-0.486-21.15-1.462c-44.663-6.266-77.341-32.892-96.89-54.126
					c-25.968-28.207-35.278-70.747-43.493-108.278c-1.431-6.54-2.783-12.717-4.216-18.833
					c-17.053-72.815-34.143-158.332-31.596-240.507c0.445-14.357,5.666-25.849,15.518-34.154
					c29.969-25.264,94.981-16.171,129.907-11.286l4.463,0.622c10.85,1.496,21.755,3.149,32.302,4.749
					c73.103,11.084,142.151,21.554,212.086-14.922c74.249-38.726,127.788-107.064,179.564-173.152
					c13.139-16.771,26.726-34.114,40.239-50.384c32.108-38.66,66.823-79.399,107.065-115.189
					c33.289-29.605,68.81-57.135,103.021-58.111c14.019-0.396,24.862,4.021,32.304,13.137c19.419,23.787,10.675,72.645,6.014,92.546
					c-3.101,13.238-6.953,26.705-10.68,39.727c-13.036,45.563-26.516,92.676-11.033,140.372
					c12.746,39.263,41.911,66.054,70.116,91.962c13.88,12.75,28.232,25.933,40.66,40.554
					c39.107,46.008,62.925,105.779,62.158,155.987c-0.773,50.556-26.169,105.171-67.934,146.096
					c-27.616,27.062-82.723,73.975-141.513,84.117c-5.465,0.942-10.713,1.383-15.767,1.383
					c-33.851,0.003-59.191-19.744-85.82-40.492c-1.544-1.203-3.093-2.409-4.648-3.616c-31.235-24.234-73.104-51.984-120.028-51.222
					l-0.007-0.429l0.007,0.429c-52.582,0.824-104.085,34.429-153.893,66.928c-14.157,9.237-27.53,17.963-40.804,25.855
					c-22.316,13.27-46.002,24.466-68.909,35.294c-9.476,4.479-19.275,9.111-28.85,13.83
					C1366.093,1311.542,1336.52,1319.102,1308.371,1319.102z M1192.329,845.63c-25.133,0-49.877,3.82-65.233,16.766
					c-9.659,8.142-14.777,19.422-15.214,33.525c-2.543,82.077,14.534,167.525,31.575,240.286c1.434,6.122,2.786,12.303,4.218,18.845
					c8.191,37.426,17.475,79.845,43.286,107.882c19.454,21.131,51.966,47.627,96.378,53.856
					c34.175,4.797,70.797-2.282,108.846-21.034c9.582-4.722,19.383-9.354,28.863-13.836c22.888-10.819,46.555-22.007,68.836-35.255
					c13.259-7.884,26.625-16.604,40.774-25.837c49.91-32.565,101.519-66.239,154.348-67.067c0.614-0.01,1.231-0.015,1.843-0.015
					c46.443,0,87.786,27.413,118.725,51.416c1.557,1.208,3.105,2.415,4.649,3.617c30.452,23.726,59.221,46.141,100.914,38.94
					c58.563-10.102,113.515-56.892,141.06-83.883c41.607-40.771,66.906-95.163,67.676-145.498
					c0.765-50.009-22.975-109.562-61.953-155.419c-12.395-14.581-26.728-27.746-40.588-40.479
					c-28.287-25.983-57.536-52.851-70.351-92.328c-15.564-47.944-2.048-95.186,11.025-140.872
					c3.723-13.013,7.573-26.47,10.669-39.687c4.632-19.778,13.334-68.316-5.844-91.808c-7.265-8.899-17.891-13.206-31.614-12.823
					c-33.938,0.969-69.31,28.398-102.477,57.895c-40.198,35.75-74.889,76.461-106.976,115.096
					c-13.505,16.261-27.088,33.599-40.224,50.365c-51.832,66.16-105.429,134.572-179.842,173.383
					c-70.184,36.606-139.367,26.116-212.611,15.009c-10.544-1.599-21.447-3.251-32.291-4.747l-4.464-0.622
					C1239.542,848.955,1215.766,845.63,1192.329,845.63z"/>
			</g>
			<g>
				<path style="fill:#4D4D4D;" d="M1289.922,1347.047c-7.154,0-14.447-0.522-21.941-1.701c-19.527-3.073-40.667-10.412-58-20.135
					c-21.122-11.849-35.6-26.583-41.868-42.61c-17.416-44.527-29.005-90.708-38.044-130.009
					c-18.759-81.56-35.723-168.374-32.854-250.64c0.541-15.515,6.236-27.969,16.926-37.017
					c32.363-27.39,101.654-18.25,138.879-13.34l3.292,0.433c14.36,1.881,28.896,4.225,42.953,6.492
					c68.948,11.117,134.07,21.617,197.817-14.321c46.256-26.076,81.825-66.86,107.645-99.478
					c17.12-21.626,34.177-43.887,50.673-65.416c17.613-22.986,35.825-46.755,54.158-69.808
					c36.575-45.993,68.38-83.513,104.721-117.131c34.289-31.721,70.955-61.243,106.756-62.462
					c14.546-0.498,26.076,4.09,34.349,13.624c21.381,24.64,15.324,74.488,11.728,94.777c-2.633,14.855-6.358,30.079-9.962,44.802
					c-11.283,46.109-22.951,93.79-4.072,139.96c14.325,35.034,42.553,59.539,69.851,83.238
					c17.312,15.028,35.212,30.568,49.585,48.732c35.987,45.481,57.941,107.725,57.295,162.44
					c-0.638,54.001-24.227,110.857-63.098,152.088c-44.349,47.04-97.803,82.977-142.988,96.131
					c-40.677,11.84-68.927-4.636-104.395-29.206c-36.514-25.293-80.28-50.955-127.797-49.651
					c-55.924,1.551-110.258,36.038-162.803,69.39c-15.284,9.701-29.72,18.864-44.17,27.224
					c-37.435,21.655-67.878,35.064-98.71,43.479c-6.491,1.771-12.973,3.66-19.242,5.486
					C1340.937,1339.896,1316.39,1347.047,1289.922,1347.047z M1187.031,846.99c-27.652,0-55.23,4.169-72.313,18.627
					c-10.49,8.878-16.079,21.114-16.61,36.367c-2.866,82.163,14.086,168.907,32.831,250.409
					c9.032,39.269,20.611,85.409,38.005,129.883c14.244,36.418,67.114,57.143,99.175,62.188
					c35.025,5.515,65.729-3.432,98.235-12.903c6.272-1.827,12.759-3.717,19.256-5.49c30.755-8.393,61.133-21.774,98.499-43.391
					c14.435-8.35,28.864-17.508,44.139-27.204c52.647-33.416,107.086-67.971,163.257-69.528l0.012,0.446l-0.012-0.446
					c47.807-1.342,91.699,24.436,128.33,49.81c35.265,24.428,63.338,40.813,103.637,29.083
					c45.04-13.111,98.344-48.957,142.588-95.887c38.723-41.072,62.22-97.702,62.855-151.484
					c0.644-54.521-21.236-116.548-57.104-161.876c-14.32-18.098-32.188-33.61-49.469-48.612
					c-27.377-23.767-55.687-48.343-70.092-83.574c-18.989-46.44-7.286-94.263,4.031-140.511c3.6-14.71,7.322-29.919,9.95-44.746
					c3.574-20.162,9.605-69.686-11.523-94.036c-8.088-9.321-19.405-13.798-33.643-13.316
					c-35.604,1.212-73.655,32.135-106.182,62.225c-36.299,33.58-68.079,71.071-104.627,117.031
					c-18.328,23.047-36.538,46.813-54.148,69.795c-16.499,21.531-33.558,43.796-50.682,65.427
					c-25.871,32.682-61.516,73.549-107.907,99.702c-28.745,16.204-60.75,24.33-97.846,24.84
					c-33.117,0.464-67.401-5.071-100.551-10.416c-14.051-2.266-28.58-4.608-42.927-6.487l-3.292-0.434
					C1235.577,850.195,1211.275,846.99,1187.031,846.99z"/>
			</g>
			<g>
				<path style="fill:#505050;" d="M1279.521,1374.297c-10.998,0-21.889-0.732-32.379-2.474
					c-22.174-3.68-43.342-11.791-62.915-24.108c-15.575-9.8-21.658-27.111-27.541-43.852c-0.747-2.126-1.492-4.245-2.254-6.344
					c-16.089-44.31-27.35-90.257-36.244-129.359c-18.15-79.796-37.275-172.225-34.424-259.358
					c0.544-16.653,6.624-30.13,18.068-40.056c34.123-29.593,107.049-21.594,142.097-17.749c17.797,1.952,36.399,5.07,54.388,8.086
					c64.845,10.871,131.898,22.11,189.809-13.652c41.116-25.391,70.827-64.746,97.039-99.469
					c16.845-22.314,33.6-45.279,49.803-67.489c19.279-26.426,39.215-53.752,59.443-80.172c30.605-39.973,64.271-82,103.047-118.549
					c32.473-30.608,70.6-62.1,107.175-63.594c15.354-0.626,27.9,4.165,37.247,14.248c23.506,25.354,20.485,75.6,18.096,96.026
					c-1.826,15.611-5,31.988-8.069,47.827c-9.258,47.768-18.83,97.162,3.634,141.249c15.641,30.698,42.469,52.926,68.414,74.422
					c20.726,17.172,42.157,34.929,58.09,57.038c32.445,45.025,51.505,108.389,50.981,169.496
					c-0.23,26.953-4.975,54.964-13.72,81.006c-9.613,28.624-23.534,53.923-41.378,75.194
					c-21.392,25.502-48.133,46.207-73.845,64.783c-2.293,1.657-4.588,3.326-6.889,4.998c-20.303,14.759-41.297,30.02-64.626,39.854
					c-41.688,17.575-69.075,4.24-109.222-19.812c-34.923-20.923-81.354-44.737-130.82-43.075l-0.016-0.464l0.016,0.464
					c-59.192,1.978-116.148,36.824-171.23,70.523c-14.511,8.878-28.217,17.264-41.989,25.082
					c-33.181,18.835-72.021,39.659-113.11,48.352C1340.696,1368.766,1309.719,1374.297,1279.521,1374.297z M1185.55,847.974
					c-30.81,0-63.491,4.46-83.109,21.474c-11.241,9.749-17.213,23-17.749,39.384c-2.847,87.023,16.265,179.382,34.402,259.123
					c8.887,39.073,20.14,84.985,36.211,129.248c0.763,2.101,1.509,4.224,2.257,6.352c5.83,16.591,11.858,33.746,27.159,43.375
					c19.468,12.251,40.521,20.317,62.573,23.978c39.139,6.495,84.001-1.101,118.711-8.445c40.959-8.665,79.724-29.45,112.844-48.251
					c13.759-7.812,27.459-16.192,41.963-25.066c55.184-33.763,112.247-68.674,171.684-70.659
					c49.718-1.663,96.297,22.218,131.328,43.206c39.895,23.902,67.098,37.16,108.384,19.753
					c23.231-9.794,44.181-25.022,64.441-39.75c2.301-1.673,4.597-3.342,6.892-4.999c25.662-18.542,52.35-39.204,73.677-64.629
					c33.876-40.384,54.393-98.556,54.881-155.61c0.521-60.917-18.473-124.074-50.808-168.945
					c-15.862-22.013-37.248-39.731-57.929-56.866c-26.018-21.556-52.921-43.846-68.649-74.715
					c-22.607-44.372-13.005-93.925-3.718-141.847c3.066-15.821,6.236-32.182,8.06-47.758c2.375-20.298,5.389-70.215-17.854-95.287
					c-9.154-9.874-21.44-14.568-36.529-13.951c-36.27,1.482-74.228,32.852-106.575,63.342
					c-38.727,36.503-72.365,78.497-102.946,118.438c-20.221,26.411-40.154,53.732-59.43,80.155
					c-16.205,22.212-32.962,45.181-49.812,67.501c-26.262,34.788-56.028,74.217-97.292,99.7
					c-58.208,35.947-125.437,24.677-190.451,13.778c-17.977-3.014-36.565-6.13-54.336-8.079
					C1229.169,850.313,1207.848,847.974,1185.55,847.974z"/>
			</g>
			<g>
				<path style="fill:#545454;" d="M1280.201,1402.097c-18.657,0-37.207-1.715-55.813-5.114
					c-22.112-4.041-46.714-9.859-58.786-27.863c-9.676-14.431-15.886-33.212-21.365-49.783c-0.908-2.745-1.803-5.451-2.697-8.094
					c-15.379-45.419-26.445-91.732-36.114-135.016c-18.978-84.97-37.303-175.036-34.872-260.006
					c0.516-18.013,7.039-32.744,19.389-43.784c36.135-32.303,114.804-25.734,140.655-23.577c23.187,1.936,46.616,5.12,69.275,8.199
					c22.698,3.085,46.167,6.274,69.379,8.206c43.145,3.593,76.451,1.265,109.139-21.394c34.709-24.062,59.926-59.923,84.312-94.604
					c3.21-4.565,6.402-9.105,9.596-13.588c13.616-19.115,27.235-38.709,40.407-57.658c19.851-28.558,40.378-58.089,61.323-86.602
					c31.061-42.283,65.283-86.634,105.039-124.532c31.903-30.411,69.598-61.812,107.281-64.127
					c16.519-1.013,30.301,3.846,40.957,14.448c26.191,26.058,26.251,78.061,25.061,99.209c-0.858,15.25-2.968,31.062-5.2,47.802
					c-6.655,49.898-13.536,101.496,12.484,142.819c16.628,26.406,41.47,46.253,65.494,65.446
					c23.484,18.762,47.769,38.163,64.912,63.896c37.324,56.022,44.875,128.238,44.638,178.954
					c-0.22,47.003-9.258,114.131-51.067,167.003c-31.399,39.708-83,81.837-141.569,115.587
					c-41.344,23.822-71.889,11.893-110.53-7.56c-39.719-19.995-87.343-40.166-139.345-38.172l-0.019-0.481l0.019,0.481
					c-63.011,2.418-122.716,37.257-180.456,70.949c-14.938,8.717-29.048,16.95-43.305,24.7
					C1401.26,1384.351,1340.204,1402.097,1280.201,1402.097z M1188.503,847.791c-33.146,0-74.565,4.488-97.919,25.364
					c-12.145,10.856-18.56,25.355-19.067,43.093c-2.429,84.859,15.884,174.859,34.849,259.768
					c9.662,43.258,20.721,89.542,36.085,134.918c0.896,2.645,1.791,5.352,2.699,8.1c5.46,16.513,11.649,35.228,21.251,49.549
					c11.862,17.692,36.24,23.446,58.158,27.451c18.538,3.388,37.04,5.098,55.631,5.098c59.852,0.003,120.748-17.703,187.769-54.137
					c14.244-7.743,28.348-15.973,43.279-24.686c57.842-33.752,117.653-68.652,180.905-71.079
					c52.225-2.011,99.988,18.224,139.815,38.273c38.368,19.315,68.688,31.169,109.615,7.585
					c58.468-33.69,109.968-75.733,141.295-115.349c41.639-52.657,50.64-119.559,50.858-166.409
					c0.237-50.582-7.286-122.596-44.476-178.416c-17.061-25.608-41.285-44.961-64.711-63.677
					c-24.087-19.243-48.994-39.142-65.709-65.686c-26.206-41.618-19.302-93.391-12.623-143.46
					c2.229-16.722,4.336-32.516,5.192-47.728c1.183-21.019,1.137-72.69-24.778-98.472c-10.451-10.399-23.976-15.164-40.218-14.169
					c-37.373,2.296-74.896,33.571-106.674,63.863c-39.702,37.846-73.893,82.157-104.927,124.405
					c-20.938,28.503-41.461,58.028-61.309,86.581c-13.173,18.952-26.794,38.548-40.414,57.667c-3.192,4.482-6.383,9.02-9.592,13.583
					c-24.435,34.75-49.701,70.683-84.551,94.841c-32.924,22.824-66.408,25.171-109.768,21.563
					c-23.236-1.934-46.719-5.125-69.429-8.212c-22.646-3.078-46.063-6.26-69.225-8.194
					C1221.552,849.072,1206.206,847.791,1188.503,847.791z"/>
			</g>
			<g>
				<path style="fill:#575757;" d="M1290.556,1431.623c-31.205,0-61.447-5.899-91.027-11.669
					c-25.083-4.893-34.958-12.188-45.941-33.941c-9.956-19.717-17.129-40.382-22.833-57.995
					c-15.596-48.163-27.164-98.123-36.782-141.171c-19.536-87.432-38.447-179.747-36.514-262.861
					c0.462-19.882,7.602-36.285,21.22-48.753c26.18-23.969,75.751-33.764,147.326-29.113c23.436,1.522,47.13,4.32,70.044,7.026
					c19.732,2.33,40.136,4.739,60.278,6.322c42.808,3.364,80.749,4.158,111.553-20.319c30.051-23.878,52.685-58.241,74.575-91.472
					c4.277-6.493,8.317-12.626,12.439-18.726c11.804-17.466,23.64-35.338,35.086-52.622c20.263-30.596,41.215-62.234,62.734-92.738
					c31.179-44.195,65.683-90.518,106.69-129.885c29.673-28.484,68.667-61.508,107.153-64.066
					c17.96-1.19,33.305,3.945,45.608,15.273c28.607,26.339,32.479,77.58,32.814,98.387c0.248,15.374-0.83,31.817-1.973,49.226
					c-3.263,49.742-6.962,106.121,23.118,144.903c17.124,22.079,39.263,39.407,60.673,56.165
					c26.636,20.848,54.178,42.405,72.513,73.38c31.695,53.549,35.937,121.587,35.799,187.136
					c-0.109,51.699-4.646,117.672-39.053,169.375c-29.595,44.475-75.681,78.501-120.249,111.407
					c-8.156,6.022-15.86,11.71-23.513,17.497c-39.938,30.202-73.711,20.014-120.677,1.023
					c-52.458-21.213-97.252-30.233-140.965-28.386c-66.59,2.813-128.588,36.8-188.545,69.669
					c-12.149,6.66-24.712,13.548-36.912,19.933c-37.104,19.418-80.557,41.03-126.734,51.733
					C1322.231,1430.126,1306.269,1431.623,1290.556,1431.623z M1193.07,845.994c-53.775,0-91.946,10.044-113.717,29.977
					c-13.409,12.276-20.439,28.438-20.895,48.038c-1.93,83.001,16.968,175.248,36.49,262.619
					c9.614,43.026,21.176,92.96,36.758,141.081c5.692,17.578,12.85,38.197,22.774,57.853c10.81,21.41,20.535,28.593,45.24,33.411
					c44.372,8.655,90.253,17.604,138.518,6.416c46.062-10.676,89.446-32.256,126.496-51.646c12.191-6.38,24.75-13.265,36.895-19.923
					c60.057-32.924,122.159-66.969,188.983-69.792l0.021,0.5l-0.021-0.5c43.857-1.85,88.787,7.19,141.382,28.458
					c46.649,18.863,80.183,28.991,119.698-0.893c7.657-5.791,15.363-11.48,23.522-17.505
					c44.499-32.854,90.513-66.828,120.011-111.157c34.258-51.48,38.775-117.264,38.885-168.822
					c0.138-65.406-4.087-133.284-35.66-186.625c-18.238-30.813-45.705-52.311-72.269-73.102
					c-21.457-16.795-43.646-34.162-60.847-56.339c-30.312-39.082-26.6-95.662-23.325-145.582
					c1.141-17.388,2.219-33.811,1.971-49.145c-0.334-20.679-4.169-71.59-32.492-97.668c-12.095-11.136-27.198-16.191-44.864-15.011
					c-38.165,2.536-76.978,35.423-106.526,63.79c-40.947,39.309-75.417,85.586-106.566,129.739
					c-21.511,30.492-42.459,62.124-62.718,92.714c-11.447,17.285-23.285,35.159-35.092,52.629
					c-4.119,6.095-8.157,12.226-12.433,18.716c-21.933,33.296-44.612,67.727-74.788,91.705
					c-31.048,24.67-70.813,23.789-112.253,20.533c-20.162-1.585-40.576-3.995-60.317-6.326c-22.902-2.704-46.583-5.5-69.992-7.021
					C1214.408,846.368,1203.446,845.994,1193.07,845.994z"/>
			</g>
			<g>
				<path style="fill:#5A5A5A;" d="M1261.711,1461.381c-32.652,0-62.249-7.032-89.562-21.181
					c-27.162-14.071-39.426-55.54-48.381-85.819c-1.152-3.896-2.241-7.576-3.305-11.013
					c-14.607-47.167-25.599-94.408-37.441-146.842c-17.889-79.205-40.152-177.779-38.66-264.651
					c0.374-21.769,8.082-39.992,22.909-54.165c35.828-34.246,105.239-37.569,143.421-36.497c26.377,0.738,53.048,3.327,78.84,5.831
					c20.253,1.966,41.196,3.999,61.857,5.122c32.369,1.76,76.7,4.169,105.154-21.789c27.333-24.935,48.248-58.395,68.474-90.754
					c3.918-6.268,7.969-12.749,11.928-18.932c9.684-15.124,19.426-30.57,28.848-45.507c22.039-34.942,44.828-71.075,68.563-105.759
					c29.947-43.761,63.323-89.709,104.417-129.269c29.164-28.075,67.665-60.655,106.857-63.425
					c60.342-4.273,87.251,56.699,92.298,115.173c1.298,15.035,1.48,31.065,1.674,48.036c0.583,51.107,1.242,109.033,36.019,146.561
					c16.214,17.498,35.137,32.288,53.437,46.592c30.458,23.807,61.953,48.424,80.732,85.745
					c26.069,51.81,25.471,114.877,24.943,170.521c-0.077,8.126-0.15,15.801-0.147,23.46l0.009,7.397
					c0.083,56.189,0.177,119.877-30.567,171.122c-23.579,39.301-60.672,68.859-96.543,97.444
					c-14.795,11.79-30.094,23.98-43.979,36.536c-20.72,18.736-41.639,25.122-62.946,25.124c-22.14,0.001-44.7-6.891-67.924-13.982
					c-48.386-14.775-95.659-20.891-144.522-18.691l-0.023-0.518l0.023,0.518c-71.35,3.21-136.738,36.537-199.974,68.769
					c-12.199,6.218-24.813,12.646-37.132,18.673c-39.981,19.56-87.502,40.878-136.82,50.688
					C1295.833,1459.549,1278.374,1461.381,1261.711,1461.381z M1199.047,842.085c-39.227,0-98.878,5.613-131.06,36.374
					c-14.62,13.975-22.22,31.952-22.589,53.434c-1.49,86.748,20.758,185.254,38.634,264.405
					c11.837,52.413,22.824,99.633,37.42,146.764c1.066,3.443,2.155,7.126,3.309,11.025c8.902,30.101,21.093,71.325,47.864,85.193
					c88.095,45.636,185.641,10.148,277.929-35c12.311-6.022,24.921-12.45,37.117-18.666
					c63.334-32.281,128.824-65.661,200.397-68.881c48.983-2.201,96.372,3.926,144.872,18.736
					c45.286,13.827,88.06,26.889,129.872-10.919c13.909-12.577,29.221-24.778,44.028-36.578c35.8-28.528,72.818-58.027,96.3-97.168
					c30.597-50.998,30.503-114.532,30.42-170.588l-0.008-7.398c-0.003-7.664,0.069-15.342,0.146-23.47
					c0.527-55.525,1.124-118.46-24.833-170.045c-18.674-37.113-50.075-61.658-80.443-85.394
					c-18.333-14.329-37.289-29.146-53.56-46.705c-35.047-37.821-35.71-95.96-36.294-147.254c-0.193-16.951-0.376-32.962-1.67-47.958
					c-5.005-57.984-31.581-118.432-91.194-114.229c-38.859,2.747-77.174,35.185-106.211,63.138
					c-41.027,39.495-74.366,85.392-104.281,129.108c-23.724,34.669-46.508,70.792-68.542,105.726
					c-9.422,14.939-19.165,30.387-28.852,45.514c-3.956,6.178-8.005,12.657-11.922,18.922
					c-20.264,32.418-41.217,65.939-68.654,90.97c-28.774,26.25-73.353,23.829-105.909,22.058c-20.682-1.124-41.636-3.158-61.9-5.125
					c-25.775-2.502-52.427-5.089-78.769-5.827C1207.056,842.148,1203.161,842.085,1199.047,842.085z"/>
			</g>
			<g>
				<path style="fill:#5E5E5E;" d="M1231.358,1488.417c-2.198,0-4.391-0.029-6.578-0.092c-35.864-1.021-59.069-10.403-68.971-27.885
					c-42.032-74.211-61.091-157.76-79.523-238.559c-1.514-6.635-3.028-13.274-4.556-19.915l-0.3-1.304
					c-19.198-83.438-40.958-178.009-40.282-260.997c0.772-94.783,125.118-104.064,163.21-104.651
					c29.475-0.456,59.303,1.682,88.151,3.747c17.209,1.232,35.005,2.507,52.533,3.217c35.251,1.429,79.125,3.207,108.873-24.277
					c26.645-24.617,46.208-58.127,65.128-90.533c4.363-7.473,8.483-14.532,12.718-21.536c6.333-10.477,12.634-20.975,18.935-31.474
					c23.841-39.724,48.494-80.8,74.627-120.023c27.292-40.963,60.771-88.198,102.147-127.952
					c26.306-25.275,65.963-59.223,106.468-62.219c63.744-4.726,97.041,54.377,106.895,111.255c2.873,16.58,4.65,34.159,6.37,51.161
					c5.382,53.217,10.946,108.246,50.233,147.777c14.698,14.789,31.496,27.914,47.74,40.607
					c32.352,25.277,65.805,51.416,83.418,91.57c21.154,48.226,18.687,102.859,16.3,155.694c-0.776,17.187-1.51,33.42-1.464,49.449
					c0.031,11.44,0.39,22.938,0.77,35.11c1.604,51.472,3.263,104.695-20.44,150.591c-22.47,43.511-62.242,76.209-100.706,107.831
					c-12.708,10.447-25.849,21.251-37.825,32.064c-25.118,22.68-49.62,30.272-77.279,30.274c-19.122,0.001-39.75-3.627-63.148-8.408
					c-42.515-8.685-90.201-11.442-150.072-8.675l-0.025-0.535l0.025,0.535c-75.427,3.486-147.568,36.89-217.335,69.192
					c-7.503,3.475-14.97,6.932-22.398,10.332c-41.082,18.801-89.168,39.743-140.02,50.292
					C1289.487,1483.295,1260.254,1488.417,1231.358,1488.417z M1202.504,836.024c-2.714,0-5.422,0.02-8.13,0.061
					c-37.847,0.583-161.392,9.777-162.156,103.589c-0.675,82.862,21.07,177.367,40.255,260.748l0.3,1.304
					c1.528,6.642,3.043,13.282,4.557,19.917c18.415,80.723,37.457,164.194,79.412,238.27c9.704,17.132,32.605,26.331,68.068,27.341
					c30.848,0.884,63.328-4.773,79.946-8.22c50.742-10.526,98.763-31.44,139.792-50.218c7.427-3.399,14.892-6.855,22.395-10.329
					c69.86-32.348,142.098-65.795,217.735-69.291c59.963-2.771,107.733-0.008,150.336,8.696
					c56.923,11.628,97.386,16.408,139.494-21.612c11.996-10.831,25.146-21.642,37.863-32.098
					c38.38-31.553,78.066-64.18,100.436-107.495c23.574-45.648,21.92-98.73,20.32-150.065c-0.38-12.181-0.738-23.686-0.771-35.14
					c-0.045-16.055,0.689-32.301,1.466-49.501c2.382-52.712,4.844-107.219-16.21-155.215c-17.506-39.907-50.851-65.96-83.097-91.156
					c-16.271-12.713-33.096-25.859-47.841-40.696c-39.554-39.8-45.139-95.021-50.539-148.425
					c-1.717-16.983-3.493-34.543-6.358-51.086c-9.775-56.415-42.665-115.039-105.762-110.37
					c-40.159,2.971-79.617,36.763-105.804,61.923c-41.302,39.682-74.738,86.858-101.998,127.773
					c-26.12,39.203-50.765,80.268-74.6,119.981c-6.301,10.5-12.603,20.999-18.937,31.477c-4.23,6.997-8.349,14.052-12.709,21.521
					c-18.959,32.475-38.564,66.054-65.327,90.78c-30.073,27.786-74.194,25.999-109.643,24.56
					c-17.545-0.711-35.349-1.986-52.566-3.219C1256.259,837.956,1229.274,836.024,1202.504,836.024z"/>
			</g>
			<g>
				<path style="fill:#616161;" d="M1221.795,1509.517c-8.16,0-16.151-0.328-23.959-0.985c-25.756-2.17-38.84-6.903-53.2-30.612
					c-37.86-62.514-54.275-137.886-70.148-210.776c-3.692-16.954-7.511-34.485-11.486-51.215c-1.473-6.2-2.969-12.458-4.477-18.766
					c-19.203-80.334-40.967-171.385-40.837-250.025c0.063-37.744,17.976-67.793,53.243-89.313
					c37.268-22.741,82.468-28.733,106.094-30.281c32.285-2.115,65.06-0.733,96.755,0.603c14.149,0.597,28.78,1.213,43.174,1.511
					c44.03,0.907,80.237-0.546,112.103-27.615c27.127-23.044,45.255-55.984,62.785-87.84c3.678-6.683,7.48-13.593,11.244-20.167
					c4.172-7.289,8.334-14.585,12.496-21.881c24.413-42.799,49.657-87.055,76.832-129.18
					c20.814-32.264,52.268-81.022,88.921-120.374c41.929-45.018,81.348-68.349,120.507-71.327
					c67.574-5.145,107.406,51.751,122.139,106.707c4.864,18.147,8.537,36.427,12.089,54.104
					c10.918,54.34,21.231,105.665,63.709,148.119c13.958,13.951,29.869,26.521,45.256,38.679
					c33.905,26.788,68.964,54.487,84.414,98.262c16.135,45.717,11.381,95.798,6.782,144.232
					c-2.166,22.814-4.406,46.405-4.292,68.737c0.09,17.635,1.606,36.318,3.074,54.388c3.883,47.818,7.898,97.265-11.917,140.912
					c-24.313,53.557-77.956,96.364-125.283,134.133c-3.681,2.937-7.309,5.831-10.864,8.687c-21.549,17.3-45.958,33.703-78.38,36.569
					c-18.862,1.664-38.036-0.649-56.581-2.889c-4.482-0.541-9.117-1.101-13.655-1.592c-41.737-4.52-84.609-2.045-126.069,0.348
					c-10.923,0.631-21.241,1.226-31.608,1.703l-0.025-0.553l0.025,0.553c-84.002,3.87-169.208,39.792-244.383,71.485
					c-44.4,18.719-96.297,39.524-150.359,49.501C1263.699,1507.458,1242.225,1509.517,1221.795,1509.517z M1213.257,827.559
					c-12.071,0-24.151,0.302-36.161,1.088c-23.524,1.542-68.524,7.504-105.589,30.122c-34.915,21.305-52.65,51.037-52.712,88.37
					c-0.13,78.509,21.618,169.492,40.806,249.766c1.508,6.309,3.004,12.567,4.478,18.768c3.978,16.739,7.797,34.276,11.49,51.235
					c15.854,72.802,32.249,148.083,70.014,210.438c14.108,23.294,26.986,27.946,52.346,30.083
					c27.261,2.298,56.795,0.561,87.782-5.157c53.953-9.958,105.784-30.737,150.131-49.433
					c75.26-31.729,160.563-67.692,244.762-71.571c10.361-0.478,20.675-1.072,31.595-1.703c41.506-2.395,84.426-4.871,126.251-0.344
					c4.545,0.492,9.184,1.053,13.669,1.594c18.488,2.233,37.609,4.544,56.351,2.885c32.128-2.84,56.371-19.139,77.784-36.329
					c3.558-2.855,7.186-5.752,10.867-8.689c47.229-37.69,100.762-80.41,124.966-133.724c19.696-43.387,15.693-92.688,11.821-140.366
					c-1.469-18.089-2.988-36.794-3.078-54.471c-0.114-22.388,2.129-46.007,4.297-68.848c4.587-48.313,9.33-98.271-6.725-143.758
					c-15.343-43.473-50.274-71.072-84.055-97.761c-15.412-12.177-31.35-24.769-45.354-38.765
					c-42.714-42.69-53.059-94.176-64.011-148.684c-3.549-17.661-7.218-35.923-12.074-54.036
					c-14.616-54.527-54.09-110.978-120.984-105.889c-38.869,2.956-78.05,26.173-119.781,70.977
					c-36.585,39.28-68.008,87.988-88.8,120.219c-27.159,42.099-52.395,86.342-76.801,129.128
					c-4.162,7.297-8.324,14.593-12.497,21.883c-3.758,6.566-7.559,13.472-11.234,20.151c-17.579,31.943-35.756,64.975-63.039,88.15
					c-32.162,27.321-68.579,28.794-112.842,27.878c-14.406-0.298-29.043-0.915-43.198-1.512
					C1253.868,828.414,1233.576,827.559,1213.257,827.559z"/>
			</g>
			<g>
				<path style="fill:#646464;" d="M1206.045,1529.846c-8.113,0-16.106-0.442-23.826-1.472c-24.055-3.208-35.638-18.37-47.266-36.37
					c-23.81-36.859-35.839-83.535-46.452-124.716l-0.82-3.18c-7.71-29.894-15.031-60.418-22.11-89.938
					c-4.563-19.027-9.282-38.702-14.059-58.016c-2.217-8.963-4.499-18.063-6.808-27.27
					c-18.987-75.718-40.507-161.538-40.838-234.822c-0.177-39.168,17.898-72.862,52.271-97.441
					c28.535-20.404,67.508-34.105,109.741-38.581c24.622-2.609,50.461-1.835,77.82-1.011c60.007,1.801,122.057,3.666,168.712-33.023
					c30.113-23.681,47.852-57.465,65.006-90.137c2.913-5.548,5.925-11.284,8.953-16.888l2.812-5.204
					c25.808-47.766,52.494-97.157,81.911-143.898c25.769-40.944,54.25-83.75,87.875-119.43
					c41.426-43.957,80.923-66.809,120.747-69.864c31.515-2.422,61.313,6.953,86.17,27.098
					c22.977,18.621,41.336,45.853,53.095,78.751c6.487,18.151,11.545,37.063,16.435,55.351c4.459,16.673,9.069,33.915,14.748,50.515
					c11.956,34.953,29.999,62.381,62.279,94.671c13.306,13.31,28.527,25.526,43.247,37.339
					c35.518,28.504,72.243,57.979,84.993,105.161c12.066,44.657,4.895,92.432-2.043,138.634c-4.325,28.815-8.412,56.031-8.219,82.64
					c0.157,21.632,3.322,44.015,6.674,67.711c6.33,44.759,12.876,91.043-1.988,132.945c-11.831,33.354-36.73,60.206-57.102,79.873
					c-23.719,22.9-50.603,48.856-79.425,69.528c-25.066,17.979-52.789,35.271-85.634,40.014
					c-18.698,2.701-37.932,2.135-56.528,1.586c-6.154-0.182-12.518-0.369-18.745-0.434c-31.07-0.338-63.305,3.614-94.459,7.423
					c-23.523,2.876-45.741,5.592-67.149,6.543l-0.025-0.571l0.025,0.571c-85.806,3.812-177.846,35.206-248.445,62.131
					c-48.021,18.313-99.419,36.988-153.357,46.482C1252.889,1526.312,1228.989,1529.846,1206.045,1529.846z M1205.123,817.391
					c-13.402,0-26.43,0.442-39.124,1.788c-74.511,7.897-161.383,47.96-160.99,134.881c0.331,73.145,21.833,158.894,40.805,234.548
					c2.309,9.208,4.591,18.31,6.808,27.272c4.778,19.318,9.497,38.995,14.061,58.024c7.078,29.515,14.397,60.035,22.105,89.919
					l0.82,3.18c11.109,43.104,22.596,87.677,46.306,124.38c11.472,17.759,22.885,32.715,46.457,35.858
					c29.4,3.92,62.849-0.741,91.693-5.816c53.839-9.478,105.178-28.131,153.148-46.426c70.679-26.955,162.832-58.385,248.801-62.205
					c21.364-0.948,43.561-3.662,67.062-6.534c31.19-3.813,63.449-7.763,94.609-7.432c6.239,0.064,12.607,0.252,18.767,0.434
					c18.553,0.549,37.732,1.113,56.331-1.574c32.603-4.708,60.184-21.917,85.132-39.811c28.755-20.624,55.606-46.55,79.298-69.423
					c20.28-19.58,45.066-46.303,56.818-79.434c14.77-41.638,8.244-87.78,1.933-132.402c-3.356-23.735-6.527-46.154-6.685-67.863
					c-0.194-26.698,3.898-53.957,8.231-82.817c6.919-46.086,14.074-93.741,2.069-138.167
					c-12.652-46.822-49.23-76.178-84.604-104.567c-14.744-11.833-29.99-24.069-43.341-37.423
					c-32.412-32.422-50.535-59.977-62.553-95.108c-5.691-16.638-10.306-33.898-14.77-50.59
					c-4.885-18.266-9.935-37.154-16.407-55.262c-24.824-69.453-77.723-109.726-138.101-105.094
					c-93.453,7.168-170.646,129.82-207.742,188.763c-29.396,46.708-56.074,96.083-81.872,143.833l-2.812,5.203
					c-3.024,5.598-6.035,11.331-8.946,16.876c-17.21,32.778-35.007,66.672-65.312,90.504
					c-46.981,36.945-109.241,35.074-169.453,33.267C1230.475,817.776,1217.636,817.391,1205.123,817.391z"/>
			</g>
			<g>
				<path style="fill:#686868;" d="M1196.874,1547.602c-11.785,0-22.698-1.441-30.997-5.431
					c-12.8-6.155-26.109-19.221-39.556-38.836c-24.147-35.22-34.742-78.427-44.988-120.212c-0.81-3.304-1.616-6.591-2.425-9.857
					c-4.703-18.989-9.349-38.326-13.842-57.026c-6.982-29.06-14.202-59.108-21.8-88.542c-3.679-14.252-7.521-28.578-11.59-43.746
					c-20.352-75.876-41.398-154.335-42.111-223.725c-0.892-86.907,78.231-139.194,157.042-152.461
					c27.113-4.564,55.873-5.225,83.685-5.865c57.113-1.313,116.172-2.671,164.109-37.898c33.779-24.823,51.052-58.692,69.34-94.55
					l1.239-2.429c25.362-49.702,54.107-106.035,86.373-158.015c50.913-82.021,120.404-176.964,206.577-183.17
					c66.299-4.774,124.759,33.463,156.342,102.291c8.342,18.178,15.128,37.312,21.691,55.815
					c5.559,15.671,11.306,31.876,17.968,47.41c16.063,37.465,40.174,65.967,71.433,97.235
					c12.614,12.618,27.178,24.465,41.262,35.922c35.985,29.272,73.196,59.542,84.374,106.951
					c10.852,46.025,0.808,94.792-8.906,141.953c-6.782,32.926-13.188,64.026-12.91,93.984c0.229,24.648,5.556,50.607,11.196,78.092
					c9.116,44.424,18.544,90.361,5.727,132.525c-10.188,33.52-33.736,60.44-53.113,80.149
					c-24.81,25.234-52.006,51.289-82.743,70.899c-26.762,17.074-58.758,35.446-93.162,42.261
					c-17.881,3.541-36.39,4.587-54.289,5.598c-7.317,0.414-14.883,0.841-22.286,1.434c-27.125,2.168-55.23,7.83-82.41,13.305
					c-30.676,6.179-59.65,12.016-86.983,13.148l-0.024-0.589l0.024,0.589c-73.2,3.035-162.667,21.374-251.92,51.638
					c-51.828,17.573-102.733,34.069-155.688,42.787c-3.108,0.512-6.528,1.115-10.181,1.76
					C1237.163,1543.848,1215.887,1547.602,1196.874,1547.602z M1768.976,326.617c-3.631,0-7.278,0.131-10.962,0.396
					c-85.641,6.167-154.895,100.833-205.66,182.616c-32.239,51.938-60.973,108.248-86.324,157.929l-1.239,2.428
					c-18.353,35.986-35.688,69.977-69.691,94.965c-48.237,35.448-107.484,36.81-164.781,38.127
					c-27.771,0.639-56.486,1.299-83.517,5.849c-78.316,13.184-156.944,65.076-156.059,151.287
					c0.71,69.241,21.737,147.626,42.071,223.431c4.069,15.171,7.913,29.499,11.593,43.757c7.6,29.443,14.821,59.497,21.805,88.562
					c4.493,18.698,9.138,38.033,13.84,57.019c0.809,3.268,1.616,6.556,2.426,9.859c10.221,41.683,20.79,84.784,44.815,119.827
					c13.142,19.169,26.661,32.461,39.095,38.439c21.348,10.264,60.698,3.319,86.738-1.273c3.658-0.646,7.081-1.25,10.194-1.762
					c52.867-8.704,103.722-25.185,155.501-42.741c89.356-30.299,178.94-48.659,252.25-51.699c27.24-1.129,56.17-6.956,86.799-13.126
					c27.214-5.482,55.354-11.15,82.549-13.325c7.416-0.593,14.989-1.021,22.313-1.435c17.858-1.009,36.326-2.052,54.127-5.577
					c34.212-6.776,66.088-25.083,92.756-42.099c30.64-19.546,57.776-45.546,82.538-70.731
					c19.282-19.612,42.712-46.392,52.826-79.665c12.729-41.879,3.333-87.667-5.755-131.946
					c-5.651-27.542-10.99-53.556-11.219-78.317c-0.279-30.085,6.139-61.245,12.934-94.234c9.688-47.036,19.706-95.673,8.914-141.444
					c-11.087-47.018-48.139-77.159-83.971-106.307c-14.107-11.476-28.695-23.342-41.353-36.003
					c-31.354-31.364-55.544-59.966-71.683-97.604c-6.676-15.57-12.43-31.792-17.995-47.481
					c-6.554-18.479-13.331-37.587-21.65-55.718C1883.587,364.085,1830.218,326.617,1768.976,326.617z"/>
			</g>
			<g>
				<path style="fill:#6B6B6B;" d="M1197.65,1559.716c-12.284,0-24.208-1.796-34.693-7.215
					c-16.375-8.463-31.806-22.293-44.626-39.993c-25.46-35.154-35.614-78.552-45.434-120.521c-0.872-3.726-1.74-7.438-2.616-11.127
					c-1.567-6.605-3.129-13.211-4.691-19.816c-10.495-44.379-21.348-90.27-33.633-135.017c-4.371-15.92-9.036-32.023-13.975-49.073
					c-20.8-71.798-42.308-146.04-43.32-211.554c-0.629-40.792,14.836-78.749,44.725-109.767
					c27.181-28.208,65.226-49.239,107.125-59.221c29.4-7.004,60.121-9.478,89.831-11.87c54.582-4.395,111.021-8.939,159.011-42.221
					c37.206-25.802,55.274-59.148,73.444-96.896c22.539-46.825,49.153-101.005,79.818-151.436
					c45.382-74.635,116.344-174.604,208.234-181.031c34.937-2.445,69.246,5.192,99.223,22.082
					c29.582,16.667,54.974,42.327,73.427,74.206c10.901,18.831,19.896,38.997,28.594,58.499
					c6.636,14.878,13.498,30.263,21.154,44.936c19.53,37.428,47.443,66.79,79.245,98.582c12.047,12.044,25.967,23.591,39.429,34.758
					c38.025,31.543,77.345,64.16,85.537,115.098c7.45,46.324-4.929,94.203-16.899,140.506c-9.462,36.601-18.4,71.171-18.029,104.471
					c0.305,27.407,8.083,56.351,16.318,86.994c11.536,42.925,23.465,87.312,14.283,129.223
					c-6.612,30.184-24.471,60.808-53.079,91.021c-23.374,24.686-53.252,47.982-84.129,65.599
					c-38.47,21.948-71.447,36.175-100.816,43.494c-17.015,4.241-34.677,6.62-51.757,8.92c-9.868,1.329-20.071,2.703-30.024,4.421
					c-24.226,4.18-49.222,11.337-73.395,18.258c-35.285,10.104-68.613,19.646-99.946,20.817l-0.022-0.606l0.022,0.606
					c-85.731,3.206-178.69,17.878-255.04,40.256c-50.513,14.805-107.766,31.584-165.013,39.396
					c-3.186,0.435-6.463,0.921-9.806,1.417C1223.734,1557.751,1210.495,1559.716,1197.65,1559.716z M1749.581,313.726
					c-4.192,0-8.406,0.147-12.646,0.443c-91.329,6.389-162.039,106.046-207.282,180.451
					c-30.636,50.383-57.235,104.532-79.761,151.331c-18.246,37.906-36.396,71.397-73.846,97.368
					c-48.259,33.468-104.864,38.025-159.605,42.433c-29.664,2.389-60.338,4.858-89.647,11.841
					c-76.129,18.136-152.318,77.05-150.918,167.787c1.009,65.351,22.494,139.514,43.272,211.235
					c4.941,17.054,9.607,33.162,13.98,49.089c12.291,44.769,23.146,90.67,33.644,135.06c1.562,6.604,3.124,13.21,4.691,19.814
					c0.876,3.691,1.745,7.404,2.617,11.131c9.792,41.853,19.918,85.13,45.235,120.085c12.709,17.548,27.994,31.251,44.201,39.628
					c21.1,10.906,48.373,6.859,72.434,3.289c3.348-0.497,6.629-0.983,9.82-1.419c57.157-7.799,114.363-24.565,164.835-39.358
					c76.442-22.403,169.509-37.094,255.337-40.303c31.186-1.166,64.445-10.689,99.657-20.771
					c24.204-6.931,49.231-14.097,73.521-18.288c9.976-1.721,20.19-3.097,30.069-4.427c17.048-2.296,34.675-4.67,51.626-8.895
					c29.259-7.292,62.136-21.479,100.508-43.371c54.031-30.826,122.232-90.133,136.624-155.825
					c9.117-41.622-2.772-85.863-14.271-128.648c-8.256-30.719-16.054-59.734-16.36-87.295
					c-0.372-33.461,8.586-68.108,18.068-104.789c11.939-46.182,24.286-93.936,16.876-140.009
					c-8.119-50.487-47.261-82.956-85.113-114.355c-13.482-11.185-27.425-22.75-39.513-34.835
					c-31.873-31.865-59.853-61.299-79.462-98.879c-7.674-14.707-14.544-30.108-21.187-45.003
					c-8.686-19.473-17.667-39.609-28.536-58.386C1873.212,348.982,1814.496,313.726,1749.581,313.726z"/>
			</g>
			<g>
				<path style="fill:#6E6E6E;" d="M1200.547,1569.064c-15.094,0-29.021-2.424-43.94-10.17
					c-18.027-9.36-33.501-22.423-45.993-38.826c-27.031-35.495-36.967-79.89-46.575-122.823c-0.771-3.445-1.54-6.88-2.314-10.297
					c-11.089-48.909-23.143-100.912-37.816-151.724c-5.752-19.92-12.192-40.255-19.01-61.784
					c-21.929-69.246-44.604-140.849-45.863-204.076c-0.851-42.75,14.344-83.541,43.941-117.964
					c27.535-32.024,66.385-56.641,109.392-69.315c29.73-8.761,60.9-13.088,91.044-17.273
					c52.033-7.224,105.838-14.694,152.271-45.401c32.008-21.168,55.542-50.107,74.062-91.073
					c22.387-49.519,47.333-102.361,78.013-153.276c29.102-48.297,57.46-85.432,86.698-113.529
					c39.713-38.163,80.892-58.907,122.391-61.655c76.931-5.093,146.597,29.097,191.14,93.807
					c12.639,18.36,23.441,38.238,33.888,57.462c8.371,15.403,17.026,31.33,26.568,46.368c21.679,34.163,51.261,63.689,79.868,92.244
					l3.493,3.487c11.624,11.611,25.017,22.918,37.968,33.852c40.107,33.863,81.58,68.878,86.816,123.424
					c4.497,46.835-10.159,94.341-24.333,140.284c-12.319,39.931-23.955,77.648-23.489,114.055
					c0.382,29.835,10.776,61.352,21.78,94.719c14.34,43.479,29.167,88.438,21.489,131.712
					c-5.508,31.046-23.403,63.208-51.751,93.008c-23.942,25.168-54.683,48.021-86.559,64.347
					c-55.797,28.577-112.676,42.835-172.895,57.929c-6.284,1.575-12.591,3.156-18.92,4.76
					c-23.358,5.918-47.262,14.782-70.378,23.354c-38.916,14.431-75.672,28.06-110.703,29.202
					c-85.526,2.786-175.956,8.132-257.828,28.204l-9.148,2.245c-53.611,13.167-109.047,26.783-164.973,32.792
					C1218.738,1568.224,1209.44,1569.064,1200.547,1569.064z M1731.816,300.631c-4.928,0-9.892,0.164-14.886,0.495
					c-72.124,4.776-140.194,61.882-208.102,174.582c-30.646,50.859-55.573,103.662-77.945,153.146
					c-18.621,41.19-42.297,70.297-74.511,91.601c-46.669,30.864-100.617,38.354-152.788,45.596
					c-30.099,4.179-61.222,8.5-90.863,17.234c-91.396,26.933-154.081,103.441-152.436,186.055
					c1.254,63.047,23.902,134.562,45.804,203.723c6.821,21.537,13.263,41.88,19.019,61.815
					c14.683,50.844,26.741,102.866,37.834,151.793c0.775,3.419,1.544,6.854,2.315,10.302c9.579,42.802,19.484,87.061,46.35,122.338
					c12.379,16.256,27.713,29.2,45.575,38.475c23.398,12.148,44.422,11.022,71.566,8.105
					c55.842-6.001,111.237-19.606,164.808-32.764l9.148-2.246c81.983-20.099,172.491-25.45,258.084-28.239l0.021,0.625l-0.021-0.625
					c34.828-1.135,71.492-14.73,110.31-29.124c23.147-8.583,47.083-17.459,70.506-23.393c6.33-1.604,12.638-3.186,18.923-4.761
					c60.147-15.077,116.959-29.317,172.628-57.83c55.76-28.559,125.267-86.671,137.649-156.46
					c7.622-42.963-7.154-87.77-21.445-131.102c-11.036-33.461-21.459-65.067-21.844-95.095
					c-0.469-36.603,11.196-74.411,23.545-114.439c14.138-45.825,28.756-93.21,24.283-139.796
					c-5.188-54.039-46.463-88.887-86.379-122.588c-12.971-10.951-26.383-22.275-38.044-33.923l-3.493-3.487
					c-28.656-28.603-58.288-58.18-80.04-92.459c-9.565-15.074-18.231-31.02-26.611-46.441
					c-10.432-19.195-21.218-39.044-33.819-57.35C1865.563,334.258,1802.347,300.631,1731.816,300.631z"/>
			</g>
			<g>
				<path style="fill:#727272;" d="M1207.361,1577.242c-40.226,0-78.67-18.435-104.571-50.644
					c-28.779-35.79-38.462-81.844-47.827-126.382c-0.897-4.266-1.789-8.509-2.693-12.718
					c-12.506-58.216-24.342-104.979-37.248-147.165c-8.902-29.101-19.147-58.279-29.055-86.496
					c-6.515-18.554-13.252-37.74-19.546-56.731c-14.512-43.784-22.983-88.251-23.852-125.209
					c-1.024-43.527,13.22-86.241,41.191-123.522c26.6-35.453,64.603-63.818,107.011-79.87c32.1-12.15,66.667-18.854,100.097-25.336
					c49.63-9.624,100.95-19.575,144.85-47.566c34.172-21.789,61.809-54.425,77.82-91.896
					c18.317-42.867,43.422-98.794,75.238-151.222c64.054-105.552,134.545-161.386,209.516-165.952
					c40.849-2.488,79.751,3.974,115.615,19.207c36.893,15.669,68.527,39.804,94.026,71.732
					c13.809,17.29,25.961,36.167,37.713,54.422c10.62,16.498,21.603,33.558,33.763,49.372c25.147,32.703,55.24,62.788,84.343,91.882
					l1.487,1.488c11.258,11.255,23.763,21.925,37.002,33.221c41.508,35.414,84.428,72.033,87.854,127.776
					c3.005,48.884-14.243,97.753-30.923,145.014c-15.188,43.034-29.534,83.682-28.972,123.07
					c0.493,34.462,14.558,71.366,28.158,107.055c2.177,5.711,4.428,11.616,6.562,17.36c11.542,31.066,25.906,69.731,21.728,107.783
					c-3.661,33.348-20.98,67.139-50.085,97.719c-24.552,25.796-56.853,48.703-90.951,64.502
					c-44.276,20.514-91.648,34.442-137.461,47.912c-20.924,6.153-42.562,12.515-63.609,19.419
					c-23.096,7.575-46.502,18.201-69.138,28.477c-41.684,18.925-81.056,36.799-119.584,37.857l-0.018-0.643l0.018,0.643
					c-16.142,0.443-32.97,0.673-50.787,0.914c-67.259,0.914-143.492,1.951-212.489,15.419c-7.348,1.435-14.693,2.886-22.039,4.338
					c-49.486,9.778-100.656,19.891-151.866,24.289C1214.872,1577.082,1211.104,1577.242,1207.361,1577.242z M1714.805,287.314
					c-5.447,0-10.924,0.167-16.436,0.502c-74.524,4.539-144.672,60.166-208.495,165.336
					c-31.774,52.359-56.855,108.233-75.155,151.06c-16.112,37.707-43.924,70.548-78.312,92.475
					c-44.106,28.123-95.548,38.098-145.296,47.745c-33.376,6.472-67.889,13.165-99.887,25.276
					c-88.78,33.605-149.381,116.735-147.372,202.16c0.866,36.834,9.314,81.168,23.788,124.835
					c6.291,18.98,13.026,38.161,19.539,56.71c9.912,28.229,20.162,57.42,29.072,86.545c12.917,42.223,24.761,89.02,37.275,147.272
					c0.905,4.21,1.797,8.455,2.694,12.723c9.333,44.39,18.984,90.29,47.571,125.84c28.043,34.874,70.942,53.448,114.736,49.686
					c51.14-4.393,102.275-14.497,151.727-24.27c7.347-1.452,14.693-2.903,22.042-4.338c69.11-13.49,145.404-14.527,212.717-15.442
					c17.812-0.242,34.636-0.471,50.769-0.914c38.268-1.052,77.525-18.874,119.088-37.743c22.667-10.29,46.105-20.931,69.268-28.527
					c21.067-6.91,42.714-13.275,63.648-19.431c45.768-13.457,93.093-27.372,137.282-47.845
					c59.588-27.608,132.087-86.391,140.3-161.195c4.145-37.749-10.161-76.255-21.655-107.195c-2.132-5.738-4.382-11.642-6.558-17.35
					c-13.641-35.793-27.746-72.805-28.242-107.495c-0.566-39.618,13.816-80.37,29.044-123.516
					c16.638-47.14,33.841-95.884,30.853-144.507c-3.393-55.199-46.102-91.638-87.404-126.878
					c-13.26-11.313-25.783-21.998-37.076-33.289l-1.488-1.488c-29.132-29.123-59.255-59.238-84.453-92.008
					c-12.192-15.856-23.189-32.939-33.824-49.459c-11.734-18.228-23.868-37.077-37.636-54.315
					C1860.329,319.925,1791.004,287.314,1714.805,287.314z"/>
			</g>
			<g>
				<path style="fill:#757575;" d="M1222.729,1584.066c-5.126,0-10.204-0.131-15.232-0.41c-49.494-2.75-86.39-19.54-112.795-51.327
					c-30.938-37.244-40.299-85.694-49.351-132.55c-0.831-4.298-1.657-8.575-2.496-12.821
					c-10.505-53.154-24.093-104.746-40.387-153.343c-7.392-22.045-16.057-44.639-25.232-68.559
					c-24.835-64.753-50.516-131.71-52.096-192.282c-1.181-45.302,13.095-90.714,41.284-131.328
					c26.912-38.774,65.449-70.736,108.511-89.997c33.357-14.92,70.001-23.72,105.438-32.231
					c46.409-11.146,94.397-22.671,135.335-48.073c57.375-35.601,84.737-96.943,111.199-156.267
					c11.918-26.719,24.242-54.347,39.12-79.116c42.837-71.318,115-157.473,215.523-162.914
					c90.217-4.887,171.113,26.307,227.792,87.822c15.677,17.017,29.797,35.778,43.451,53.921
					c11.411,15.163,23.211,30.843,35.854,45.412c24.945,28.747,53.583,59.142,90.125,95.656
					c11.053,11.043,23.338,21.632,36.346,32.841c42.778,36.866,87.012,74.987,89.475,132.089
					c2.212,51.289-17.77,102.027-37.093,151.094c-18.011,45.732-35.021,88.928-34.367,130.996
					c0.577,37.031,17.605,76.301,34.073,114.277c2.938,6.773,5.975,13.778,8.83,20.577c15.033,35.805,28.294,70.98,25.473,107.664
					c-5.983,77.764-81.217,136.086-143.824,162.401c-35.908,15.094-73.919,26.53-110.678,37.591
					c-34.358,10.339-69.886,21.028-103.632,34.684c-22.22,8.991-44.498,20.909-66.043,32.435
					c-43.417,23.228-84.425,45.167-126.218,46.109l-0.015-0.66l0.015,0.66c-26.391,0.6-55.075-0.257-85.441-1.162
					c-59.122-1.758-120.256-3.581-177.817,4.502c-15.196,2.134-31.23,5.046-48.205,8.129
					C1302.79,1576.582,1261.576,1584.065,1222.729,1584.066z M1699.829,273.673c-6.027,0-12.089,0.164-18.207,0.495
					c-99.944,5.409-171.79,91.231-214.462,162.275c-14.836,24.7-27.144,52.291-39.045,78.974
					c-26.543,59.505-53.989,121.037-111.709,156.852c-41.119,25.514-89.213,37.064-135.723,48.234
					c-35.378,8.497-71.962,17.283-105.207,32.152C985.41,792.941,924.133,883.443,926.461,972.74
					c1.573,60.346,27.213,127.195,52.008,191.844c9.179,23.933,17.85,46.539,25.25,68.611
					c16.311,48.649,29.915,100.297,40.43,153.507c0.84,4.247,1.667,8.526,2.497,12.826c9.021,46.691,18.348,94.973,49.07,131.957
					c58.725,70.692,156.996,52.849,243.697,37.102c16.989-3.085,33.035-5.999,48.258-8.137c57.668-8.1,118.861-6.278,178.04-4.514
					c30.349,0.903,59.016,1.754,85.373,1.162c41.477-0.937,82.351-22.803,125.625-45.954c21.575-11.542,43.885-23.477,66.17-32.494
					c33.804-13.678,69.36-24.377,103.747-34.724c36.726-11.051,74.702-22.479,110.547-37.545
					c62.265-26.171,137.081-84.114,143.018-161.284c2.799-36.39-10.405-71.401-25.373-107.051
					c-2.852-6.792-5.888-13.793-8.823-20.563c-16.52-38.095-33.602-77.487-34.183-114.782c-0.658-42.329,16.399-85.643,34.458-131.5
					c19.273-48.939,39.203-99.544,37.003-150.554c-2.438-56.531-46.452-94.462-89.017-131.145
					c-13.026-11.226-25.331-21.829-36.417-32.908c-36.565-36.537-65.224-66.954-90.189-95.724
					c-12.673-14.604-24.486-30.302-35.911-45.483c-13.636-18.118-27.734-36.852-43.368-53.82
					C1855.808,304.517,1782.283,273.673,1699.829,273.673z"/>
			</g>
			<g>
				<path style="fill:#797979;" d="M1224.807,1590.058c-9.26,0-18.419-0.338-27.394-1.114c-49.06-4.24-85.537-20.913-111.514-50.971
					c-33.664-38.949-42.938-93.977-51.12-142.526c-0.437-2.592-0.872-5.17-1.307-7.732c-8.153-47.942-21.7-98.576-40.264-150.497
					c-10.667-29.836-23.267-59.449-35.451-88.089c-7.075-16.629-14.391-33.824-21.252-50.885
					c-12.935-32.157-28.618-80.202-29.876-126.468c-1.236-45.418,12.377-92.132,39.366-135.091
					c25.751-40.99,62.8-76.235,104.322-99.242c37.534-20.797,82.103-38.173,128.889-50.25c4.639-1.197,9.286-2.372,13.932-3.545
					c34.956-8.833,71.101-17.966,102.805-37.295c58.009-35.365,85.549-96.516,112.182-155.653
					c12.533-27.83,25.494-56.607,41.447-82.237c26.636-42.793,57.217-77.257,90.893-102.433
					c39.199-29.305,81.77-45.208,126.531-47.267c45.08-2.073,87.896,3.094,127.265,15.359
					c42.376,13.202,79.804,34.399,111.246,63.001c21.854,19.88,41.588,42.614,60.673,64.599
					c10.521,12.118,21.398,24.649,32.487,36.533l1.825,1.956c29.747,31.881,60.507,64.847,91.862,96.2
					c21.208,21.205,43.515,41.933,65.088,61.978c6.594,6.126,13.188,12.254,19.766,18.406c29.381,27.481,42.98,57.052,42.801,93.062
					c-0.262,52.132-21.848,102.896-42.724,151.988c-20.656,48.577-40.167,94.459-39.411,139.934
					c0.649,39.094,20.181,80.032,39.069,119.623c2.424,5.08,4.831,10.127,7.179,15.13c16.084,34.273,34.314,73.119,33.335,113.47
					c-1.995,82.077-80.736,141.246-147.56,166.976c-31.545,12.146-64.371,21.609-96.117,30.761
					c-43.768,12.617-89.025,25.664-131.417,45.905c-21.407,10.222-42.665,23.243-63.224,35.836
					c-44.741,27.406-87,53.292-132.255,54.124c-32.473,0.6-68.316-2.16-106.268-5.078c-52.256-4.018-106.292-8.17-157.28-3.995
					c-17.018,1.396-35.266,3.813-54.584,6.374C1295.949,1585.252,1259.686,1590.058,1224.807,1590.058z M1686.278,259.673
					c-6.638,0-13.05,0.16-19.221,0.444c-105.129,4.836-175.67,83.729-216.334,149.06c-15.906,25.554-28.847,54.289-41.362,82.077
					c-26.718,59.325-54.346,120.67-112.713,156.255c-31.879,19.435-68.126,28.594-103.179,37.452
					c-4.644,1.173-9.289,2.347-13.925,3.544c-46.676,12.048-91.135,29.381-128.569,50.123
					c-87.993,48.756-145.456,142.436-142.989,233.109c1.253,46.064,16.885,93.944,29.779,125.999
					c6.857,17.048,14.17,34.236,21.242,50.859c12.192,28.657,24.799,58.29,35.48,88.163
					c18.591,51.995,32.157,102.707,40.324,150.727c0.436,2.563,0.871,5.142,1.308,7.734c8.152,48.374,17.393,103.203,50.808,141.865
					c57.771,66.842,155.458,53.896,241.648,42.474c19.336-2.563,37.6-4.982,54.652-6.38c51.094-4.189,105.185-0.028,157.495,3.993
					c37.918,2.916,73.732,5.668,106.138,5.074l0.013,0.679l-0.013-0.679c44.886-0.824,86.992-26.617,131.571-53.924
					c20.588-12.61,41.877-25.651,63.349-35.903c42.491-20.289,87.805-33.352,131.625-45.984
					c31.718-9.144,64.516-18.599,96.005-30.724c66.433-25.578,144.712-84.334,146.69-165.742
					c0.973-40.03-17.186-78.723-33.206-112.86c-2.347-5-4.753-10.044-7.176-15.121c-18.95-39.723-38.546-80.797-39.201-120.186
					c-0.76-45.763,18.806-91.775,39.52-140.487c20.823-48.969,42.355-99.605,42.615-151.464
					c0.179-35.605-13.285-64.859-42.371-92.064c-6.576-6.151-13.17-12.278-19.762-18.403c-21.582-20.054-43.898-40.79-65.123-62.013
					c-31.373-31.37-62.141-64.345-91.896-96.234l-1.825-1.957c-11.105-11.901-21.991-24.442-32.52-36.569
					c-19.06-21.955-38.768-44.658-60.563-64.485C1834.881,274.71,1750.535,259.673,1686.278,259.673z"/>
			</g>
			<g>
				<path style="fill:#7C7C7C;" d="M1637.208,1607.248c-36.451,0-76.202-4.785-118.162-9.836
					c-48.19-5.802-98.026-11.8-145.363-10.577c-18.3,0.473-38.343,2.177-59.563,3.981c-40.879,3.477-87.213,7.417-129.19,2.579
					c-48.159-5.551-83.673-21.836-108.574-49.789c-35.37-39.704-43.987-97.122-51.591-147.78l-0.986-6.558
					c-7.329-48.479-20.814-98.659-40.08-149.149c-12.178-31.915-26.82-63.359-40.979-93.768
					c-6.385-13.711-12.986-27.889-19.28-41.933c-23.229-51.833-35.517-97.503-36.525-135.743
					c-1.203-45.697,12.325-93.795,39.122-139.093c25.117-42.459,61.199-80.554,101.597-107.266
					c45.03-29.774,86.968-49.475,124.651-58.555c3.59-0.865,7.19-1.722,10.793-2.581c38.751-9.231,78.821-18.776,113.543-39.738
					c57.452-34.684,84.892-94.903,111.429-153.139c12.572-27.59,25.572-56.119,41.578-81.463
					c26.715-42.3,58.693-76.024,95.044-100.235c39.671-26.423,83.517-40.69,130.32-42.405
					c101.635-3.726,190.198,22.916,256.117,77.043c46.711,38.354,89.017,83.789,129.929,127.729
					c21.084,22.644,42.886,46.059,64.927,68.098c24.974,24.972,51.059,49.634,76.285,73.484l9.018,8.528
					c32.061,30.335,45.946,60.542,45.024,97.944c-1.329,53.936-24.805,105.842-47.507,156.04
					c-23.091,51.057-44.9,99.282-44.062,147.97c0.713,41.392,22.454,83.746,43.479,124.706c2.364,4.606,4.715,9.185,7.017,13.729
					l1.101,2.172c18.509,36.512,37.646,74.268,37.818,115.526c0.159,38.23-16.75,75.156-48.9,106.785
					c-26.59,26.159-63.139,48.343-102.912,62.465c-25.69,9.121-52.531,15.383-78.489,21.439
					c-17.755,4.143-36.114,8.427-53.942,13.587c-33.564,9.716-70.313,25.07-106.271,44.402
					c-21.322,11.463-42.228,25.81-62.445,39.683c-45.655,31.33-88.778,60.922-137.886,61.669l-0.011-0.696l0.011,0.696
					C1641.277,1607.233,1639.245,1607.248,1637.208,1607.248z M1386.337,1585.282c43.6,0,88.917,5.455,132.875,10.746
					c44.256,5.327,86.056,10.36,124.059,9.781c48.688-0.741,91.643-30.218,137.12-61.425c20.248-13.895,41.185-28.262,62.573-39.761
					c36.044-19.378,72.887-34.771,106.544-44.514c17.863-5.171,36.24-9.458,54.013-13.605c25.921-6.047,52.724-12.301,78.339-21.396
					c69.825-24.791,151.238-83.647,150.887-167.932c-0.171-40.93-19.233-78.535-37.668-114.902l-1.101-2.173
					c-2.302-4.541-4.65-9.117-7.014-13.722c-21.098-41.102-42.914-83.603-43.633-125.318c-0.845-49,21.028-97.364,44.186-148.568
					c22.645-50.071,46.061-101.848,47.383-155.501c0.912-36.974-12.84-66.859-44.589-96.898l-9.018-8.528
					c-25.233-23.857-51.325-48.526-76.313-73.511c-22.059-22.057-43.869-45.481-64.961-68.134
					c-40.882-43.906-83.155-89.307-129.794-127.602c-65.651-53.908-153.896-80.439-255.183-76.727
					c-88.828,3.256-168.463,53.683-224.237,141.993c-15.956,25.263-28.936,53.749-41.489,81.296
					c-26.625,58.429-54.155,118.847-111.977,153.754c-34.908,21.074-75.085,30.645-113.94,39.9
					c-3.603,0.858-7.201,1.715-10.79,2.581c-37.525,9.042-79.314,28.677-124.208,58.362
					c-86.156,56.967-142.456,155.489-140.095,245.16c1.002,38.055,13.25,83.546,36.403,135.209
					c6.29,14.035,12.89,28.208,19.273,41.915c14.17,30.431,28.822,61.896,41.018,93.859c19.302,50.583,32.812,100.86,40.156,149.437
					l0.987,6.56c7.575,50.467,16.16,107.666,51.253,147.062c55.373,62.159,151.656,53.973,236.605,46.748
					c21.241-1.807,41.303-3.513,59.645-3.986C1377.857,1585.334,1382.091,1585.282,1386.337,1585.282z"/>
			</g>
			<g>
				<path style="fill:#7F7F7F;" d="M1635.51,1629.101c-42.78,0-88.503-7.351-136.811-15.115
					c-43.558-7.003-88.6-14.243-131.861-15.745c-25.181-0.874-50.806-0.611-75.586-0.354c-31.747,0.325-64.574,0.665-96.831-1.386
					c-47.343-3.01-95.7-10.753-128.684-46.729c-35.961-39.222-43.753-96.542-50.627-147.116l-0.502-3.691
					c-7.864-57.707-21.521-109.684-41.751-158.902c-13.134-31.954-29.002-63.223-44.349-93.463
					c-7.863-15.494-15.994-31.516-23.665-47.447c-25.342-52.629-38.087-97.081-38.964-135.897
					c-1.056-46.722,13.376-96.921,41.737-145.172c25.599-43.553,62.126-84.389,102.852-114.985
					c31.295-23.51,73.305-51.976,120.78-63.504c4.521-1.098,9.059-2.18,13.604-3.264c38.625-9.21,78.566-18.733,113.15-39.608
					c56.326-33.998,83.665-93.444,110.104-150.933c13.152-28.599,26.752-58.17,43.718-84.039
					c27.145-41.391,60.892-73.798,100.304-96.321c39.952-22.831,84.964-35.054,133.786-36.328
					c49.365-1.29,95.869,3.314,138.212,13.682c47.622,11.66,90.183,30.699,126.503,56.589
					c58.144,41.449,108.65,94.277,157.495,145.366c16.777,17.548,34.126,35.693,51.447,53.014
					c17.834,17.832,36.271,35.651,54.101,52.883c11.358,10.977,23.104,22.328,34.579,33.574
					c33.487,32.813,46.515,61.872,44.964,100.299c-2.243,55.616-27.133,108.508-51.203,159.66
					c-25.173,53.496-48.949,104.024-48.02,156.31c0.79,44.415,24.754,88.491,47.928,131.115c2.233,4.107,4.453,8.191,6.639,12.25
					l1.435,2.664c19.631,36.438,39.931,74.117,41.58,115.603c3.525,88.729-82.147,149.114-156.583,173.865
					c-29.566,9.83-60.515,16.387-90.444,22.728c-14.26,3.021-29.006,6.146-43.401,9.581c-35.662,8.513-74.002,24.669-113.956,48.021
					c-21.795,12.738-42.84,28.635-63.192,44.008c-46.312,34.981-90.055,68.022-143.49,68.756l-0.01-0.714l0.01,0.714
					C1638.848,1629.09,1637.178,1629.101,1635.51,1629.101z M1327.338,1596.21c13.181,0,26.421,0.146,39.55,0.603
					c43.35,1.505,88.436,8.753,132.038,15.762c50.129,8.059,97.477,15.655,141.563,15.064
					c52.966-0.728,96.529-33.632,142.649-68.469c20.385-15.397,41.464-31.319,63.332-44.1
					c40.075-23.423,78.546-39.632,114.345-48.177c14.414-3.441,29.168-6.566,43.438-9.59c29.891-6.332,60.8-12.881,90.289-22.686
					c73.966-24.594,159.101-84.517,155.606-172.453c-1.636-41.155-21.855-78.687-41.41-114.981l-1.435-2.664
					c-2.185-4.058-4.403-8.14-6.636-12.245c-23.257-42.775-47.305-87.007-48.101-131.772
					c-0.937-52.618,22.909-103.293,48.155-156.943c24.01-51.023,48.837-103.783,51.067-159.109
					c1.532-37.977-11.37-66.724-44.536-99.221c-11.473-11.242-23.216-22.591-34.572-33.567
					c-17.834-17.236-36.274-35.059-54.117-52.9c-17.333-17.332-34.687-35.483-51.47-53.037
					c-48.799-51.04-99.259-103.819-157.293-145.19c-69.045-49.22-157.812-72.779-263.848-70.006
					c-97.417,2.542-177.964,48.189-232.932,132.004c-16.906,25.779-30.483,55.301-43.614,83.852
					c-26.529,57.685-53.961,117.334-110.663,151.559c-34.775,20.991-74.826,30.54-113.558,39.775
					c-4.543,1.083-9.078,2.165-13.598,3.262c-47.222,11.467-89.074,39.83-120.259,63.258
					c-67.983,51.074-146.493,149.546-144.019,258.983c0.873,38.608,13.571,82.868,38.823,135.31
					c7.664,15.918,15.792,31.933,23.651,47.42c15.359,30.265,31.241,61.56,44.396,93.566
					c20.276,49.332,33.964,101.424,41.845,159.252l0.503,3.692c6.846,50.366,14.605,107.452,50.264,146.344
					c32.643,35.603,80.677,43.277,127.722,46.268c32.203,2.046,65.004,1.708,96.725,1.383
					C1303.122,1596.334,1315.205,1596.21,1327.338,1596.21z"/>
			</g>
			<g>
				<path style="fill:#838383;" d="M1633.722,1649.082c-50.635,0-104.535-10.563-156.717-20.789
					c-37.643-7.376-76.567-15.004-114.55-18.809c-40.961-4.103-82.779-5.316-123.22-6.49c-16.747-0.485-34.063-0.988-51.085-1.689
					c-49.873-2.053-100.657-8.873-134.264-44.561c-36.821-39.099-43.605-97.358-49.592-148.76l-0.472-4.051
					c-7.601-65.009-20.962-116.321-43.324-166.38c-12.054-26.983-27.065-53.714-42.957-82.014
					c-36.014-64.13-73.254-130.443-74.133-200.254c-0.47-37.305,8.925-76.734,27.926-117.193
					c16.271-34.646,39.712-69.828,67.789-101.742c23.909-27.176,52.591-53.328,85.252-77.729c2.992-2.236,6.074-4.615,9.056-6.916
					c10.159-7.841,20.664-15.949,31.758-21.777c12.749-6.697,27.86-9.993,42.472-13.18c4.32-0.942,8.4-1.832,12.436-2.809
					c74.54-18.042,139.636-38.219,181.354-102.664c17.676-27.304,31.832-57.046,45.521-85.807
					c19.761-41.517,40.194-84.447,71.501-120.522c26.98-31.09,60.817-54.626,100.569-69.954
					c35.721-13.773,76.461-21.042,121.089-21.604c112.328-1.431,206.143,22.042,278.795,69.723
					c65.267,42.833,120.465,99.525,173.847,154.351c13.187,13.542,26.821,27.546,40.376,41.101
					c13.043,13.042,26.448,26.163,39.412,38.852c17.365,16.998,35.322,34.575,52.649,52.198
					c28.846,29.34,47.664,58.027,45.744,102.661c-2.471,57.416-28.537,111.398-53.745,163.604
					c-26.866,55.639-52.243,108.192-51.226,164.239c0.854,47.1,25.111,88.919,50.792,133.194
					c25.155,43.37,51.167,88.216,52.965,138.383c3.231,90.167-85.2,150.032-161.909,173.901
					c-30.658,9.539-62.634,15.758-93.558,21.771c-13.591,2.643-27.645,5.376-41.393,8.354
					c-41.473,8.981-81.274,25.479-121.68,50.433c-22.543,13.922-43.838,31.386-64.433,48.275
					c-46.283,37.955-90,73.807-148.075,74.618C1637.04,1649.07,1635.381,1649.082,1633.722,1649.082z M1638.672,1647.583l0.01,0.732
					L1638.672,1647.583c57.564-0.804,101.088-36.497,147.167-74.286c20.632-16.919,41.966-34.415,64.592-48.389
					c40.55-25.043,80.502-41.601,122.139-50.618c13.765-2.98,27.825-5.715,41.424-8.359c30.885-6.006,62.82-12.217,93.401-21.732
					c76.217-23.715,164.083-83.109,160.882-172.45c-1.785-49.802-27.703-94.486-52.769-137.7
					c-24.645-42.488-50.128-86.423-50.99-133.903c-1.023-56.395,24.427-109.101,51.371-164.902
					c25.145-52.072,51.145-105.917,53.602-163.03c1.897-44.107-16.747-72.503-45.326-101.572
					c-17.316-17.613-35.269-35.185-52.629-52.178c-12.967-12.692-26.375-25.816-39.423-38.864
					c-13.563-13.561-27.2-27.568-40.39-41.114c-53.327-54.769-108.469-111.403-173.601-154.148
					c-72.404-47.518-165.906-70.889-277.974-69.483c-94.966,1.197-169.177,31.832-220.571,91.054
					c-31.176,35.924-51.566,78.763-71.285,120.191c-13.709,28.804-27.886,58.589-45.614,85.974
					c-42.012,64.897-107.389,85.174-182.239,103.29c-4.053,0.981-8.141,1.872-12.469,2.816c-14.518,3.167-29.529,6.44-42.104,13.045
					c-10.981,5.769-21.435,13.837-31.544,21.64c-2.986,2.305-6.073,4.688-9.074,6.93c-32.579,24.341-61.187,50.424-85.028,77.524
					c-61.462,69.861-96.216,149.3-95.351,217.949c0.875,69.438,38.022,135.586,73.946,199.556
					c15.909,28.33,30.936,55.088,43.017,82.133c22.425,50.2,35.823,101.646,43.441,166.808l0.473,4.051
					c5.959,51.177,12.715,109.181,49.203,147.926c33.248,35.306,83.695,42.061,133.259,44.102c17.013,0.7,34.325,1.203,51.067,1.688
					c40.467,1.175,82.312,2.39,123.324,6.497c38.051,3.812,77.01,11.446,114.686,18.829
					C1531.105,1637.403,1586.729,1648.323,1638.672,1647.583z"/>
			</g>
			<g>
				<path style="fill:#868686;" d="M1631.108,1667.053c-62.438,0-124.394-14.049-184.383-27.65
					c-19.08-4.327-38.81-8.801-58.324-12.774c-34.783-7.084-73.347-12.416-121.363-16.781c-20.506-1.864-41.455-2.052-61.715-2.234
					c-23.717-0.213-48.241-0.433-72.228-3.341c-48.501-5.879-82.399-23.416-103.63-53.612
					c-26.902-38.264-32.067-88.475-36.218-128.819c-0.555-5.398-1.084-10.766-1.61-16.106c-4.13-41.917-8.031-81.51-22.971-121.294
					c-15.833-42.16-37.482-81.567-54.575-111.188c-6.299-10.916-12.786-21.696-19.653-33.109
					c-36.878-61.29-75.012-124.665-75.072-195.591c-0.056-66.654,33.428-139.562,102.366-222.888
					c23.148-27.979,49.926-55.297,81.864-83.513c2.388-2.11,4.817-4.341,7.167-6.499c9.947-9.137,20.233-18.584,32.525-23.841
					c14.672-6.275,30.792-10.104,46.382-13.806c3.586-0.852,7.153-1.699,10.679-2.57c79.69-19.685,143.842-39.967,184.03-105.71
					c15.341-25.096,28.088-52.137,40.416-78.287c20.779-44.079,42.265-89.659,76.712-126.881
					c52.747-56.999,127.789-83.554,236.125-83.554c0.126,0,0.246,0,0.372,0c115.069,0.064,207.343,21.241,282.096,64.74
					c74.519,43.363,135.359,105.263,194.197,165.124c10.582,10.766,21.524,21.899,32.371,32.746
					c9.669,9.669,19.564,19.443,29.134,28.895c20.975,20.717,42.663,42.14,63.357,63.828c33.068,34.657,51.85,63.485,49.986,108.278
					c-2.451,58.952-29.045,113.75-54.764,166.743c-26.789,55.2-54.491,112.28-53.382,172.631
					c0.928,50.497,27.568,95.352,53.332,138.729c26.325,44.322,53.546,90.154,54.105,142.584
					c0.975,91.346-89.619,150.896-167.494,174.137c-32.001,9.55-65.387,15.542-97.673,21.337
					c-14.337,2.572-29.161,5.233-43.655,8.169c-45.093,9.133-84.46,25.246-123.891,50.711
					c-22.963,14.829-44.157,33.471-64.654,51.498c-46.059,40.509-89.563,78.771-153.057,79.844
					C1635.713,1667.034,1633.408,1667.053,1631.108,1667.053z M1637.634,198.502c-107.901,0-182.579,26.399-235.026,83.073
					c-34.289,37.053-55.726,82.526-76.456,126.503c-12.344,26.186-25.109,53.264-40.493,78.43
					c-18.923,30.956-45.319,54.525-80.696,72.054c-31.883,15.797-67.507,25.253-104.254,34.33c-3.53,0.872-7.101,1.72-10.692,2.573
					c-15.528,3.688-31.585,7.501-46.139,13.725c-12.057,5.156-22.247,14.516-32.101,23.567c-2.354,2.163-4.789,4.399-7.188,6.518
					c-31.879,28.164-58.604,55.426-81.702,83.345c-68.705,83.046-102.077,155.64-102.021,221.931
					c0.06,70.51,38.084,133.705,74.857,194.819c6.569,10.917,13.362,22.206,19.667,33.133
					c17.122,29.671,38.809,69.148,54.68,111.411c15.009,39.969,18.919,79.656,23.06,121.674c0.526,5.339,1.055,10.705,1.61,16.1
					c4.132,40.172,9.276,90.167,35.953,128.11c20.972,29.829,54.527,47.161,102.583,52.987c23.904,2.897,48.385,3.117,72.061,3.329
					c20.29,0.183,41.27,0.371,61.837,2.24c48.073,4.37,86.688,9.71,121.527,16.805c19.53,3.978,39.268,8.453,58.356,12.781
					c62.112,14.085,126.342,28.66,190.932,27.557c62.943-1.063,106.247-39.148,152.092-79.47
					c20.538-18.063,41.775-36.742,64.83-51.632c39.594-25.569,79.126-41.75,124.407-50.922c14.51-2.938,29.344-5.601,43.688-8.175
					c32.245-5.788,65.589-11.772,97.508-21.298c77.376-23.091,167.39-82.172,166.424-172.684
					c-0.555-52.026-27.672-97.682-53.896-141.834c-25.863-43.545-52.606-88.573-53.542-139.468
					c-1.115-60.71,26.666-117.955,53.532-173.314c25.651-52.856,52.177-107.51,54.615-166.15
					c1.84-44.26-16.783-72.815-49.574-107.18c-20.679-21.671-42.358-43.086-63.325-63.795c-9.571-9.454-19.469-19.23-29.141-28.902
					c-10.852-10.851-21.796-21.986-32.38-32.754c-58.769-59.791-119.538-121.618-193.882-164.879
					c-74.519-43.362-166.546-64.472-281.343-64.537C1637.885,198.502,1637.752,198.502,1637.634,198.502z"/>
			</g>
		</g>
	</g>
</g>
</svg>
